<svg width="81" height="85" viewBox="0 0 81 85" fill="none"
    xmlns="http://www.w3.org/2000/svg">
    <path d="M80.0121 40.4034C80.0121 18.6259 62.3286 0.984375 40.4992 0.984375C18.6698 0.984375 0.986328 18.6259 0.986328 40.4034C0.986328 50.0542 4.48354 58.889 10.237 65.7262V81.5388H73.0459V62.7437C77.4456 56.3849 80.0121 48.7037 80.0121 40.4034Z" fill="#F4F4F4" stroke="black" stroke-width="1.5" stroke-miterlimit="10"/>
    <path d="M40.5 74.2795C59.0981 74.2795 74.1748 59.2386 74.1748 40.6847C74.1748 22.1308 59.0981 7.08984 40.5 7.08984C21.9019 7.08984 6.8252 22.1308 6.8252 40.6847C6.8252 59.2386 21.9019 74.2795 40.5 74.2795Z" fill="#F4F4F4" stroke="black" stroke-width="1.5" stroke-miterlimit="10"/>
    <path d="M40.5003 59.0573C51.5127 59.0573 60.4401 50.1512 60.4401 39.1649C60.4401 28.1786 51.5127 19.2725 40.5003 19.2725C29.4879 19.2725 20.5605 28.1786 20.5605 39.1649C20.5605 50.1512 29.4879 59.0573 40.5003 59.0573Z" fill="#F4F4F4" stroke="black" stroke-width="1.5" stroke-miterlimit="10"/>
    <path d="M47.325 77.9379V57.2295H33.449V77.9379H28.6826V84.0153H52.317V77.9379H47.325Z" fill="#F4F4F4" stroke="black" stroke-width="1.5" stroke-miterlimit="10" stroke-linejoin="round"/>
    <path d="M60.5243 51.209H20.4756V61.4506H60.5243V51.209Z" fill="#F4F4F4" stroke="black" stroke-width="1.5" stroke-miterlimit="10" stroke-linejoin="round"/>
</svg>
    