<svg width="82" height="88" viewBox="0 0 82 88" fill="none"
    xmlns="http://www.w3.org/2000/svg">
    <path d="M80.8852 39.5079C79.9092 18.2951 62.4568 1.35938 40.9856 1.35938C19.5145 1.35938 2.06207 18.2951 1.08611 39.5079H1V83.5409H81V39.5079H80.8852Z" fill="white" stroke="currentColor" stroke-width="1.5" stroke-miterlimit="10"/>
    <path d="M40.9863 76.7373C59.915 76.7373 75.2597 61.3925 75.2597 42.4638C75.2597 23.5352 59.915 8.19043 40.9863 8.19043C22.0576 8.19043 6.71289 23.5352 6.71289 42.4638C6.71289 61.3925 22.0576 76.7373 40.9863 76.7373Z" fill="white" stroke="currentColor" stroke-width="1.5" stroke-miterlimit="10"/>
    <path d="M40.9854 59.3147C50.6559 59.3147 58.4953 51.4752 58.4953 41.8048C58.4953 32.1344 50.6559 24.2949 40.9854 24.2949C31.315 24.2949 23.4756 32.1344 23.4756 41.8048C23.4756 51.4752 31.315 59.3147 40.9854 59.3147Z" fill="white" stroke="currentColor" stroke-width="1.5" stroke-miterlimit="10"/>
    <path d="M45.0623 80.4704V59.3438H36.6805V80.4704H28.959V86.6419H53.0135V80.4704H45.0623Z" fill="white" stroke="currentColor" stroke-width="1.5" stroke-miterlimit="10" stroke-linejoin="round"/>
    <path d="M61.3661 53.1709H20.6055V63.6194H61.3661V53.1709Z" fill="white" stroke="currentColor" stroke-width="1.5" stroke-miterlimit="10" stroke-linejoin="round"/>
</svg>
    