<svg xmlns="http://www.w3.org/2000/svg" xmlns:xlink="http://www.w3.org/1999/xlink"><symbol fill="none" viewBox="0 0 12 13" id="account" xmlns="http://www.w3.org/2000/svg"><path d="M6 6.298c1.486 0 2.69-1.41 2.69-3.149C8.69.737 7.487 0 6 0S3.31.737 3.31 3.15c0 1.738 1.204 3.148 2.69 3.148zM11.941 10.933l-1.357-3.057a.682.682 0 00-.307-.327L8.17 6.452a.136.136 0 00-.144.012A3.337 3.337 0 016 7.154c-.73 0-1.43-.239-2.026-.69a.136.136 0 00-.144-.012L1.723 7.55a.681.681 0 00-.307.327L.06 10.933a.676.676 0 00.051.646c1.613 1.16 4.933 1.4 4.933 1.4h1.914s3.32-.15 4.933-1.4a.676.676 0 00.051-.646z" fill="#fff"/></symbol><symbol fill="none" viewBox="0 0 30 30" id="account_section" xmlns="http://www.w3.org/2000/svg"><circle cx="15" cy="7" r="6" stroke="currentColor" stroke-width="1.5" stroke-miterlimit="10" stroke-linecap="round" stroke-linejoin="round"/><path d="M1 26.408a8.878 8.878 0 014.872-7.923l.23-.116C7.882 17.47 9.849 17 11.844 17h6.591c1.186 0 2.366.16 3.508.476l.4.11A9.077 9.077 0 0129 26.337 2.664 2.664 0 0126.335 29H3.593A2.592 2.592 0 011 26.408z" stroke="currentColor" stroke-width="1.5"/></symbol><symbol fill="none" viewBox="0 0 10 16" id="address" xmlns="http://www.w3.org/2000/svg"><path d="M5 0C2.243 0 0 2.426 0 5.407c0 3.747 5.005 10.149 5.005 10.149S10 8.97 10 5.407C10 2.426 7.757 0 5 0zm1.509 6.99c-.416.45-.963.675-1.509.675a2.048 2.048 0 01-1.509-.675c-.831-.9-.831-2.363 0-3.263A2.042 2.042 0 015 3.052c.57 0 1.106.24 1.509.675.831.9.831 2.364 0 3.263z" fill="#fff"/></symbol><symbol fill="none" viewBox="0 0 25 26" id="arrow" xmlns="http://www.w3.org/2000/svg"><path d="M12.607 21.04l10.607-10.52H2.001l10.606 10.52z" fill="currentColor" stroke="currentColor" stroke-width="3" stroke-linecap="round" stroke-linejoin="round"/></symbol><symbol fill="none" viewBox="0 0 20 20" id="arrow_next" xmlns="http://www.w3.org/2000/svg"><path d="M17.142 10.071l-7.07-7.07v14.141l7.07-7.07z" fill="#852D2E" stroke="currentColor" stroke-width="3" stroke-linecap="round" stroke-linejoin="round"/></symbol><symbol fill="none" viewBox="0 0 30 30" id="burger" xmlns="http://www.w3.org/2000/svg"><path fill-rule="evenodd" clip-rule="evenodd" d="M25.999 6.764c0-.973-.722-1.764-1.61-1.764H5.611C4.72 5 4 5.791 4 6.764c0 .974.722 1.765 1.61 1.765h18.78c.887 0 1.609-.79 1.609-1.765zm-1.61 14.707H5.611c-.89 0-1.611.79-1.611 1.764C4 24.208 4.722 25 5.61 25h18.78c.888 0 1.61-.792 1.61-1.765 0-.974-.722-1.764-1.61-1.764zM5.611 13.235h18.778c.89 0 1.611.791 1.611 1.765 0 .973-.722 1.765-1.61 1.765H5.61C4.723 16.765 4 15.973 4 15c0-.974.722-1.765 1.61-1.765z" fill="#5B423B"/></symbol><symbol fill="none" viewBox="0 0 40 22" id="cache" xmlns="http://www.w3.org/2000/svg"><path d="M39.159 1H1v20h38.159V1zM30.78 1v20M9.379 1v20M17.497 5.594v10.814" stroke="#000" stroke-miterlimit="10" stroke-linecap="round" stroke-linejoin="round"/><path d="M17.497 5.594h3.712c1.537 0 2.788 1.372 2.788 3.072 0 1.694-1.246 3.073-2.788 3.073h-3.712M21.396 14.31h-3.899" stroke="#000" stroke-miterlimit="10" stroke-linecap="round" stroke-linejoin="round"/></symbol><symbol fill="none" viewBox="0 0 30 30" id="calendar" xmlns="http://www.w3.org/2000/svg"><path fill-rule="evenodd" clip-rule="evenodd" d="M20.514 3.46v.938c3.444.27 5.719 2.616 5.722 6.214l.014 10.532c.005 3.923-2.46 6.337-6.41 6.344l-9.65.012c-3.926.005-6.421-2.466-6.426-6.4L3.75 10.69C3.745 7.07 5.94 4.73 9.383 4.414l-.002-.937c0-.55.407-.963.95-.963.543-.002.95.41.951.96l.001.875 7.331-.01-.001-.875c-.001-.55.406-.962.95-.963.53-.001.95.411.95.96zM5.652 11.078l18.685-.025v-.437c-.053-2.686-1.4-4.096-3.82-4.306l.002.962a.949.949 0 01-.95.964.94.94 0 01-.951-.961l-.001-1.012-7.331.01.001 1.01c0 .54-.406.964-.949.964a.94.94 0 01-.952-.96v-.963c-2.407.241-3.74 1.656-3.735 4.365v.389zm13.398 5.678v.014c.012.575.481 1.01 1.05.998.555-.013.999-.49.986-1.064a1.037 1.037 0 00-1.025-.997 1.035 1.035 0 00-1.011 1.05zm1.02 5.61a1.06 1.06 0 01-1.027-1.06 1.041 1.041 0 011.01-1.065h.013c.58 0 1.05.473 1.05 1.06a1.056 1.056 0 01-1.047 1.065zm-6.105-5.59a1.028 1.028 0 001.063.999c.555-.026.998-.501.974-1.076a1.02 1.02 0 00-1.026-.998 1.066 1.066 0 00-1.01 1.076zm1.068 5.534a1.028 1.028 0 01-1.063-.998c0-.575.443-1.05 1.01-1.076a1.02 1.02 0 011.026.997 1.029 1.029 0 01-.973 1.077zm-6.153-5.49a1.027 1.027 0 001.063.999c.555-.025.998-.501.973-1.076-.013-.562-.47-1-1.026-.998a1.065 1.065 0 00-1.01 1.075zm1.068 5.496c-.568.026-1.037-.423-1.063-.998a1.066 1.066 0 011.011-1.076 1.02 1.02 0 011.026.998 1.026 1.026 0 01-.974 1.076z" fill="#5B423B"/></symbol><symbol fill="none" viewBox="0 0 33 23" id="card" xmlns="http://www.w3.org/2000/svg"><path d="M30.897 22H2.575C1.705 22 1 21.305 1 20.45V2.55C1 1.696 1.706 1 2.575 1h28.322c.87 0 1.575.695 1.575 1.55v17.9c.008.855-.698 1.55-1.575 1.55z" stroke="#852D2E" stroke-miterlimit="10"/><path d="M16.188 5.4H3.68a.552.552 0 01-.556-.547v-1.39c0-.301.25-.547.556-.547h12.508c.306 0 .556.246.556.547v1.39a.562.562 0 01-.556.547zM24.604 19.524c1.173 0 2.124-.937 2.124-2.091 0-1.155-.95-2.091-2.124-2.091-1.173 0-2.123.936-2.123 2.09 0 1.155.95 2.092 2.123 2.092z" fill="#852D2E"/><path d="M27.406 15.342c-.264 0-.52.056-.756.14.5.505.813 1.193.813 1.95 0 .758-.314 1.446-.813 1.951.236.091.485.14.756.14 1.176 0 2.124-.933 2.124-2.09 0-1.151-.955-2.091-2.124-2.091z" fill="#852D2E"/></symbol><symbol fill="none" viewBox="0 0 12 12" id="clock" xmlns="http://www.w3.org/2000/svg"><path d="M6 0C2.692 0 0 2.692 0 6s2.692 6 6 6 6-2.692 6-6-2.692-6-6-6z" fill="#fff"/><path opacity=".5" d="M9.127 5.815H6.43V2.573a.494.494 0 00-.988 0v3.736c0 .273.222.494.494.494h3.19a.494.494 0 000-.988z" fill="#5B423B"/></symbol><symbol fill="none" viewBox="0 0 29 29" id="close" xmlns="http://www.w3.org/2000/svg"><path stroke="#fff" stroke-width="2" stroke-linecap="round" d="M7.778 7.778l12.728 12.728M20.507 7.778L7.779 20.506"/></symbol><symbol fill="none" viewBox="0 0 30 30" id="date" xmlns="http://www.w3.org/2000/svg"><path d="M28.8 2.7h-6.3V.3a.3.3 0 00-.3-.3h-2.1a.3.3 0 00-.3.3v2.4h-9.6V.3a.3.3 0 00-.3-.3H7.8a.3.3 0 00-.3.3v2.4H1.2C.536 2.7 0 3.236 0 3.9v24.9c0 .664.536 1.2 1.2 1.2h27.6c.664 0 1.2-.536 1.2-1.2V3.9c0-.664-.536-1.2-1.2-1.2zm-1.5 24.6H2.7V13.05h24.6V27.3zM2.7 10.5V5.4h4.8v1.8a.3.3 0 00.3.3h2.1a.3.3 0 00.3-.3V5.4h9.6v1.8a.3.3 0 00.3.3h2.1a.3.3 0 00.3-.3V5.4h4.8v5.1H2.7z" fill="currentColor"/></symbol><symbol fill="none" viewBox="0 0 82 72" id="heart" xmlns="http://www.w3.org/2000/svg"><path d="M68.303 1H1v63.53h67.303V1z" stroke="#852D2E" stroke-width="1.5" stroke-miterlimit="10" stroke-linecap="round" stroke-linejoin="round"/><path d="M7.606 16.168l3.702 6.203L17.563 7.13l4.755 12.6 4.685-7.367 3.35 3.805h7.005l4.615 4.773 6.02-7.754 5.365 4.87 1.897-1.89h4.498M7.606 33.88l3.702 6.202 6.255-15.24 4.755 12.6 4.685-7.367 3.35 3.805h7.005l4.615 4.797 6.02-7.778 5.365 4.87 1.897-1.89h4.498M7.606 51.617l3.702 6.178 6.255-15.216 4.755 12.6 4.685-7.39 3.35 3.828h7.005l4.615 4.773 6.02-7.753 5.365 4.846 1.897-1.866h4.498" stroke="#852D2E" stroke-width="1.5" stroke-miterlimit="10" stroke-linecap="round" stroke-linejoin="round"/><path d="M73.48 44.613c-4.146 0-7.52 6.93-7.52 6.93-.257-.267-3.373-6.93-7.52-6.93-4.146 0-7.52 3.102-7.52 6.93 0 6.93 4.569 12.503 15.04 19.457C76.338 64.433 81 58.497 81 51.543c0-3.828-3.373-6.93-7.52-6.93z" fill="#F4F4F4" stroke="#852D2E" stroke-width="1.5" stroke-miterlimit="10" stroke-linejoin="round"/></symbol><symbol fill="none" viewBox="0 0 35 36" id="hirurg" xmlns="http://www.w3.org/2000/svg"><path d="M11.875 34.1a4.945 4.945 0 01-2.046-3.214 4.946 4.946 0 01.823-3.72l6.577-9.393-9.393 6.577a4.985 4.985 0 01-6.934-1.223 4.94 4.94 0 01-.825-3.72 4.946 4.946 0 012.048-3.214l4.655-3.26a2.812 2.812 0 013.912.69l1.39 1.986a.525.525 0 01-.129.731l-1.72 1.204a.525.525 0 01-.73-.128l-1.196-1.707-4.376 3.064a1.825 1.825 0 00-.45 2.547 1.831 1.831 0 002.549.45l14.258-9.984c.706-.495 1.867-1.035 2.7-1.258l6.424-1.715c.144-.038.454-.329.502-.47l1.667-4.922-4.922 1.667c-.141.048-.431.358-.47.502l-.783 2.934a.525.525 0 11-1.015-.271l.783-2.933c.129-.482.676-1.067 1.149-1.227l5.812-1.968.503-.503a.524.524 0 00-.69-.541l-5.962 2.018c-.805.272-1.607 1.129-1.826 1.95l-1.092 4.088a.525.525 0 01-1.014-.27l1.091-4.089c.311-1.163 1.364-2.288 2.504-2.674L31.611.086a1.571 1.571 0 012.059 1.245 1.572 1.572 0 011.246 2.06l-2.018 5.962c-.386 1.14-1.51 2.193-2.674 2.504L23.88 13.55a8.603 8.603 0 01-.664 1.164l-9.984 14.258c-.28.4-.386.885-.302 1.367.085.482.352.901.752 1.181s.885.388 1.366.303c.481-.085.9-.352 1.181-.752l3.064-4.376-1.707-1.195a.525.525 0 01-.129-.731l1.205-1.72a.525.525 0 01.73-.13l1.987 1.391a2.812 2.812 0 01.69 3.913l-3.26 4.654a4.946 4.946 0 01-3.214 2.048 4.947 4.947 0 01-3.72-.825zm18.079-23.258c.82-.22 1.677-1.021 1.95-1.826l2.017-5.96a.53.53 0 00-.125-.54.524.524 0 00-.415-.153l-.504.504L30.91 8.68c-.16.473-.744 1.02-1.226 1.149l-6.424 1.715c-.707.188-1.77.683-2.369 1.103L6.632 22.63A2.882 2.882 0 012.1 20.276a2.86 2.86 0 011.228-2.363l4.655-3.26a.71.71 0 01.988.175l1.09 1.555.86-.602-1.09-1.556a1.761 1.761 0 00-2.45-.432l-4.655 3.26a3.903 3.903 0 00-1.616 2.536 3.896 3.896 0 00.65 2.936 3.934 3.934 0 005.473.965l14.258-9.984c.507-.355 1.44-.79 2.038-.949l6.424-1.715zM15.413 33.891a3.903 3.903 0 002.536-1.616l3.26-4.655a1.76 1.76 0 00-.432-2.45l-1.556-1.089-.602.86 1.555 1.09a.71.71 0 01.175.987l-3.26 4.655a2.86 2.86 0 01-1.858 1.184 2.86 2.86 0 01-2.152-.477 2.86 2.86 0 01-1.183-1.859 2.86 2.86 0 01.476-2.15l9.876-14.105a3.256 3.256 0 00-.153.1l-2.351 1.646-8.232 11.756c-.6.858-.831 1.9-.649 2.935a3.902 3.902 0 001.614 2.537 3.9 3.9 0 002.936.65z" fill="#852D2E"/></symbol><symbol fill="none" viewBox="0 0 30 29" id="list" xmlns="http://www.w3.org/2000/svg"><circle cx="3.5" cy="3.5" r="2.5" stroke="currentColor" stroke-width="1.5" stroke-miterlimit="10" stroke-linecap="round" stroke-linejoin="round"/><circle cx="3.5" cy="14.5" r="2.5" stroke="currentColor" stroke-width="1.5" stroke-miterlimit="10" stroke-linecap="round" stroke-linejoin="round"/><circle cx="3.5" cy="25.5" r="2.5" stroke="currentColor" stroke-width="1.5" stroke-miterlimit="10" stroke-linecap="round" stroke-linejoin="round"/><rect x="11" y="1" width="18" height="5" rx="1" stroke="currentColor" stroke-width="1.5" stroke-miterlimit="10" stroke-linecap="round" stroke-linejoin="round"/><rect x="11" y="12" width="18" height="5" rx="1" stroke="currentColor" stroke-width="1.5" stroke-miterlimit="10" stroke-linecap="round" stroke-linejoin="round"/><rect x="11" y="23" width="18" height="5" rx="1" stroke="currentColor" stroke-width="1.5" stroke-miterlimit="10" stroke-linecap="round" stroke-linejoin="round"/></symbol><symbol fill="none" viewBox="0 0 80 15" id="marker" xmlns="http://www.w3.org/2000/svg"><path fill="#852D2E" d="M0 0h80v15H0z"/></symbol><symbol fill="none" viewBox="0 0 30 30" id="menu-close" xmlns="http://www.w3.org/2000/svg"><path d="M23.456 23.455L6.486 6.485M6.485 23.457l16.97-16.97" stroke="#5B423B" stroke-width="3.53" stroke-linecap="round"/></symbol><symbol fill="none" viewBox="0 0 30 30" id="phone" xmlns="http://www.w3.org/2000/svg"><path fill-rule="evenodd" clip-rule="evenodd" d="M17.945 2.51a1.022 1.022 0 00-.782.22c-.229.18-.372.44-.403.73-.066.589.358 1.121.946 1.187 4.052.452 7.201 3.609 7.657 7.674a1.071 1.071 0 102.13-.24C26.925 7.009 23 3.073 17.945 2.51zm.078 4.352a1.068 1.068 0 00-1.255.851c-.114.581.267 1.148.846 1.262a4.327 4.327 0 013.43 3.437v.002a1.074 1.074 0 001.257.85c.58-.116.96-.682.847-1.264a6.468 6.468 0 00-5.125-5.138zM20 18.863c.564-.325 1.202-.693 2.006-.521.728.153 3.21 2.168 3.89 2.866.446.457.694.93.732 1.402.067 1.852-2.45 3.967-2.908 4.23-.609.44-1.317.66-2.112.66-.813 0-1.72-.23-2.708-.692-5.363-2.238-13.556-10.27-15.722-15.59-.898-1.982-.905-3.615-.015-4.843.355-.576 2.378-2.983 4.19-2.907.481.041.95.288 1.409.738.694.68 2.659 3.17 2.81 3.901.169.812-.2 1.458-.527 2.025a9.57 9.57 0 01-.267.425c-.392.602-.912 1.402-.728 1.913 1.32 3.243 4.372 6.073 7.616 7.402.502.182 1.302-.342 1.902-.735a9.77 9.77 0 01.419-.266l.013-.008z" fill="#5B423B"/></symbol><symbol fill="none" viewBox="0 0 30 30" id="profile" xmlns="http://www.w3.org/2000/svg"><path fill-rule="evenodd" clip-rule="evenodd" d="M21.617 9.114A6.593 6.593 0 0115 15.729a6.594 6.594 0 01-6.617-6.615A6.592 6.592 0 0115 2.5a6.592 6.592 0 016.617 6.614zM15 27.5c-5.422 0-10-.881-10-4.281 0-3.402 4.607-4.252 10-4.252 5.423 0 10 .882 10 4.282S20.393 27.5 15 27.5z" fill="#5B423B"/></symbol><symbol fill="none" viewBox="0 0 72 52" id="quote" xmlns="http://www.w3.org/2000/svg"><path d="M72 20.572H56.571L66.857 0H51.428L41.142 20.572v30.857H72V20.572zM30.857 51.43V20.572h-15.43L25.715 0H10.285L-.001 20.572V51.43h30.858z" fill="#852D2E"/></symbol><symbol fill="none" viewBox="0 0 34 41" id="tomo" xmlns="http://www.w3.org/2000/svg"><path d="M31.566 36.938V23.853A16.099 16.099 0 10.9 17.006c0 2.363.523 4.696 1.533 6.832v13.101a.766.766 0 00.767.767h5.393l-.684 1.14a.767.767 0 00.657 1.16h16.867a.767.767 0 00.657-1.16l-.683-1.14H30.8a.767.767 0 00.766-.767zM2.433 17.005a14.567 14.567 0 1118.4 14.044v-4.844h6.133a.767.767 0 00.767-.767v-3.833a.767.767 0 00-.767-.767h-.792a9.803 9.803 0 00.792-3.833 9.967 9.967 0 10-19.933 0 9.872 9.872 0 00.778 3.833h-.778a.767.767 0 00-.766.767v3.833a.766.766 0 00.766.767h6.133v4.83a14.573 14.573 0 01-10.733-14.03zM7.8 24.672v-2.3h18.4v2.3H7.8zm11.5 1.533v8.433h-4.6v-8.433h4.6zm-10.734-9.2a8.433 8.433 0 1116.867 0 8.346 8.346 0 01-.935 3.833H9.514a8.336 8.336 0 01-.947-3.833zm-4.6 19.167v-9.758a16.151 16.151 0 009.2 6.21v2.014h-2.3a.766.766 0 00-.656.373l-.697 1.16H3.967zm5.955 2.3l1.38-2.3H22.7l1.38 2.3H9.921zm20.112-2.3h-5.546l-.697-1.161a.767.767 0 00-.657-.373h-2.3v-2.02a16.139 16.139 0 009.2-6.19v9.744z" fill="#852D2E"/><path d="M3.967 16.238H5.5v1.534H3.967v-1.534zm24.533 0h1.533v1.534H28.5v-1.534zM13.166 3.973H14.7v1.533h-1.534V3.973zm3.067 0h1.534v1.533h-1.534V3.973zm3.067 0h1.533v1.533H19.3V3.973z" fill="#852D2E"/></symbol></svg>