<svg width="12" height="13" viewBox="0 0 12 13" fill="none"
    xmlns="http://www.w3.org/2000/svg">
    <path d="M6.00012 6.29835C7.48599 6.29835 8.69067 4.8884 8.69067 3.14916C8.69067 0.737307 7.48605 0 6.00012 0C4.51413 0 3.30957 0.737307 3.30957 3.14916C3.3096 4.8884 4.51416 6.29835 6.00012 6.29835Z" fill="white"/>
    <path d="M11.9413 10.9334L10.5839 7.8756C10.5218 7.73568 10.4127 7.61963 10.277 7.54895L8.17035 6.45231C8.1239 6.42817 8.06765 6.43287 8.02588 6.46448C7.43006 6.91514 6.7295 7.15334 6.00002 7.15334C5.27043 7.15334 4.56993 6.91514 3.97411 6.46448C3.93223 6.43287 3.87597 6.42817 3.82952 6.45231L1.72304 7.54895C1.58722 7.61963 1.47827 7.73562 1.41612 7.8756L0.0587027 10.9334C-0.0348829 11.1442 -0.0157024 11.3854 0.110027 11.5788C1.72304 12.7391 5.04262 12.9784 5.04262 12.9784H6.95734C6.95734 12.9784 10.277 12.8296 11.89 11.5788C12.0157 11.3854 12.0349 11.1442 11.9413 10.9334Z" fill="white"/>
</svg>
