<svg width="10" height="16" viewBox="0 0 10 16" fill="none"
    xmlns="http://www.w3.org/2000/svg">
    <path d="M5 0C2.24302 0 0 2.42562 0 5.40704C0 9.15436 5.00492 15.5556 5.00492 15.5556C5.00492 15.5556 10 8.97008 10 5.40704C10 2.42562 7.75707 0 5 0ZM6.5086 6.99022C6.09263 7.43997 5.54636 7.66489 5 7.66489C4.45373 7.66489 3.90729 7.43997 3.49148 6.99022C2.65961 6.09073 2.65961 4.62708 3.49148 3.72748C3.89429 3.29169 4.43011 3.05168 5 3.05168C5.56989 3.05168 6.10562 3.29179 6.5086 3.72748C7.34047 4.62708 7.34047 6.09073 6.5086 6.99022Z" fill="white"/>
</svg>
