<svg width="30" height="30" viewBox="0 0 30 30" fill="none"
    xmlns="http://www.w3.org/2000/svg">
    <path d="M28.8 2.7H22.5V0.3C22.5 0.135 22.365 0 22.2 0H20.1C19.935 0 19.8 0.135 19.8 0.3V2.7H10.2V0.3C10.2 0.135 10.065 0 9.9 0H7.8C7.635 0 7.5 0.135 7.5 0.3V2.7H1.2C0.53625 2.7 0 3.23625 0 3.9V28.8C0 29.4638 0.53625 30 1.2 30H28.8C29.4638 30 30 29.4638 30 28.8V3.9C30 3.23625 29.4638 2.7 28.8 2.7ZM27.3 27.3H2.7V13.05H27.3V27.3ZM2.7 10.5V5.4H7.5V7.2C7.5 7.365 7.635 7.5 7.8 7.5H9.9C10.065 7.5 10.2 7.365 10.2 7.2V5.4H19.8V7.2C19.8 7.365 19.935 7.5 20.1 7.5H22.2C22.365 7.5 22.5 7.365 22.5 7.2V5.4H27.3V10.5H2.7Z" fill="#852D2E"/>
</svg>
