<svg xmlns="http://www.w3.org/2000/svg"
    xmlns:xlink="http://www.w3.org/1999/xlink" viewBox="0 0 250 250">
    <defs>
        <pattern id="a" width="260" height="260" patternTransform="translate(50 20) scale(0.96)" patternUnits="userSpaceOnUse" viewBox="0 0 260 260">
            <rect width="260" height="260" style="fill:none"/>
            <path d="M221.257,241.687l-17.3,5a2,2,0,0,1-2.476-1.366l-5-17.3a2,2,0,0,0-2.477-1.367l-15.958,4.611a2,2,0,0,0-1.366,2.476l5,17.3a2,2,0,0,1-1.366,2.477l-17.3,5a2,2,0,0,0-1.367,2.477l4.611,15.958a2,2,0,0,0,2.477,1.366l17.3-5a2,2,0,0,1,2.476,1.366l5,17.3a2,2,0,0,0,2.476,1.367l15.958-4.611a2,2,0,0,0,1.366-2.477l-5-17.3a2,2,0,0,1,1.366-2.476l17.3-5a2,2,0,0,0,1.367-2.477l-4.611-15.958A2,2,0,0,0,221.257,241.687Z" style="fill:none;stroke:#852d2f;stroke-miterlimit:10;stroke-width:2px"/>
            <path d="M91.257,241.687l-17.3,5a2,2,0,0,1-2.476-1.366l-5-17.3a2,2,0,0,0-2.477-1.367l-15.958,4.611a2,2,0,0,0-1.366,2.476l5,17.3a2,2,0,0,1-1.366,2.477l-17.3,5a2,2,0,0,0-1.367,2.477l4.611,15.958a2,2,0,0,0,2.477,1.366l17.3-5a2,2,0,0,1,2.476,1.366l5,17.3a2,2,0,0,0,2.476,1.367l15.958-4.611a2,2,0,0,0,1.366-2.477l-5-17.3a2,2,0,0,1,1.366-2.476l17.3-5a2,2,0,0,0,1.367-2.477l-4.611-15.958A2,2,0,0,0,91.257,241.687Z" style="fill:none;stroke:#852d2f;stroke-miterlimit:10;stroke-width:2px"/>
            <path d="M286.257,111.687l-17.3,5a2,2,0,0,1-2.476-1.366l-5-17.3a2,2,0,0,0-2.477-1.367l-15.958,4.611a2,2,0,0,0-1.366,2.476l5,17.3a2,2,0,0,1-1.366,2.477l-17.3,5a2,2,0,0,0-1.367,2.477l4.611,15.958a2,2,0,0,0,2.477,1.366l17.3-5a2,2,0,0,1,2.476,1.366l5,17.3a2,2,0,0,0,2.476,1.367l15.958-4.611a2,2,0,0,0,1.366-2.477l-5-17.3a2,2,0,0,1,1.366-2.476l17.3-5a2,2,0,0,0,1.367-2.477l-4.611-15.958A2,2,0,0,0,286.257,111.687Z" style="fill:none;stroke:#852d2f;stroke-miterlimit:10;stroke-width:2px"/>
            <path d="M156.257,111.687l-17.3,5a2,2,0,0,1-2.476-1.366l-5-17.3a2,2,0,0,0-2.477-1.367l-15.958,4.611a2,2,0,0,0-1.366,2.476l5,17.3a2,2,0,0,1-1.366,2.477l-17.3,5a2,2,0,0,0-1.367,2.477l4.611,15.958a2,2,0,0,0,2.477,1.366l17.3-5a2,2,0,0,1,2.476,1.366l5,17.3a2,2,0,0,0,2.476,1.367l15.958-4.611a2,2,0,0,0,1.366-2.477l-5-17.3a2,2,0,0,1,1.366-2.476l17.3-5a2,2,0,0,0,1.367-2.477l-4.611-15.958A2,2,0,0,0,156.257,111.687Z" style="fill:none;stroke:#852d2f;stroke-miterlimit:10;stroke-width:2px"/>
            <path d="M26.257,111.687l-17.3,5a2,2,0,0,1-2.476-1.366l-5-17.3A2,2,0,0,0-.989,96.655l-15.958,4.611a2,2,0,0,0-1.366,2.476l5,17.3a2,2,0,0,1-1.366,2.477l-17.3,5a2,2,0,0,0-1.367,2.477l4.611,15.958a2,2,0,0,0,2.477,1.366l17.3-5a2,2,0,0,1,2.476,1.366l5,17.3a2,2,0,0,0,2.476,1.367l15.958-4.611a2,2,0,0,0,1.366-2.477l-5-17.3a2,2,0,0,1,1.366-2.476l17.3-5a2,2,0,0,0,1.367-2.477l-4.611-15.958A2,2,0,0,0,26.257,111.687Z" style="fill:none;stroke:#852d2f;stroke-miterlimit:10;stroke-width:2px"/>
            <path d="M221.257-18.313l-17.3,5a2,2,0,0,1-2.476-1.366l-5-17.3a2,2,0,0,0-2.477-1.367l-15.958,4.611a2,2,0,0,0-1.366,2.476l5,17.3a2,2,0,0,1-1.366,2.477l-17.3,5A2,2,0,0,0,161.655.989l4.611,15.958a2,2,0,0,0,2.477,1.366l17.3-5a2,2,0,0,1,2.476,1.366l5,17.3a2,2,0,0,0,2.476,1.367l15.958-4.611a2,2,0,0,0,1.366-2.477l-5-17.3a2,2,0,0,1,1.366-2.476l17.3-5a2,2,0,0,0,1.367-2.477l-4.611-15.958A2,2,0,0,0,221.257-18.313Z" style="fill:none;stroke:#852d2f;stroke-miterlimit:10;stroke-width:2px"/>
            <path d="M91.257-18.313l-17.3,5a2,2,0,0,1-2.476-1.366l-5-17.3a2,2,0,0,0-2.477-1.367L48.053-28.734a2,2,0,0,0-1.366,2.476l5,17.3a2,2,0,0,1-1.366,2.477l-17.3,5A2,2,0,0,0,31.655.989l4.611,15.958a2,2,0,0,0,2.477,1.366l17.3-5a2,2,0,0,1,2.476,1.366l5,17.3a2,2,0,0,0,2.476,1.367l15.958-4.611a2,2,0,0,0,1.366-2.477l-5-17.3a2,2,0,0,1,1.366-2.476l17.3-5A2,2,0,0,0,98.345-.989L93.734-16.947A2,2,0,0,0,91.257-18.313Z" style="fill:none;stroke:#852d2f;stroke-miterlimit:10;stroke-width:2px"/>
        </pattern>
    </defs>
    <title>Ресурс 5</title>
    <rect width="250" height="250" style="fill:url(#a);opacity:0.15"/>
    <rect width="250" height="250" style="fill:none"/>
</svg>