<svg xmlns="http://www.w3.org/2000/svg"
    xmlns:xlink="http://www.w3.org/1999/xlink" viewBox="0 0 1022.625 716.061">
    <defs>
        <pattern id="a" width="1023" height="716" patternTransform="translate(392.053 1203.674)" patternUnits="userSpaceOnUse" viewBox="0 0 1023 716">
            <rect width="1023" height="716" style="fill:none"/>
            <circle cx="1023.092" cy="687.856" r="10.029" style="fill:none;stroke:#852d2f;stroke-miterlimit:10;stroke-width:2px"/>
            <circle cx="1023.092" cy="687.856" r="6.096" style="fill:none;stroke:#852d2f;stroke-miterlimit:10;stroke-width:2px"/>
            <circle cx="1026.926" cy="545.71" r="3.834" style="fill:none;stroke:#852d2f;stroke-miterlimit:10;stroke-width:1.17701915250498px"/>
            <path d="M879.75,692.808c.469-1.244,1.736-11.524-4.791-14.752-4.086-2.021-35.087-4.678-54.079-8.125-14.688-2.092-21.677,8.894-23.993,15.965s-3.193,20.06,9.882,27.071c17.346,8.467,43.9,24.682,48.392,25.472,7.171,1.264,12.237-7.771,12.6-9.051" style="fill:none;stroke:#852d2f;stroke-miterlimit:10;stroke-width:2px"/>
            <path d="M796.786,686.2c-25.207-8.265-42.965-10.172-49.92,11.038-10.028,30.587,25.607,37.675,50.2,45.738,8.322,2.728,33.1,12.215,28.367,26.663s-29.305-1.311-35.961,10c-2.627,4.463-1.139,10.293.635,14.677" style="fill:none;stroke:#852d2f;stroke-miterlimit:10;stroke-width:2px"/>
            <path d="M876.733,694.325l.05-.372a1.616,1.616,0,0,1,1.817-1.387l2.395.321a1.616,1.616,0,0,1,1.387,1.817l-.05.372a1.615,1.615,0,0,1-1.816,1.387l-2.4-.321A1.617,1.617,0,0,1,876.733,694.325Z" style="fill:#852d2f"/>
            <path d="M804.125,711.5a31.907,31.907,0,0,1,13.521-41.829" style="fill:none;stroke:#852d2f;stroke-miterlimit:10;stroke-width:2px"/>
            <circle cx="966.326" cy="701.029" r="6.514" style="fill:none;stroke:#852d2f;stroke-miterlimit:10;stroke-width:2px"/>
            <path d="M544.184,721.334c-1.158.653-8.722,7.729-5.783,14.391,1.84,4.171,23.924,26.089,36.288,40.912,9.929,11.024,22.336,7.075,28.648,3.135s15.313-13.347,9.775-27.11c-7.88-17.621-17.862-47.091-20.8-50.577-4.693-5.568-14.374-1.884-15.469-1.131" style="fill:none;stroke:#852d2f;stroke-miterlimit:10;stroke-width:2px"/>
            <path d="M603.611,779.6c14.043,22.5,26.447,35.356,45.384,23.539,27.308-17.04,4.508-45.329-9.192-67.285-4.636-7.43-17.569-30.6-4.67-38.65s21.647,19.8,34.006,15.387c4.877-1.74,7.474-7.168,8.924-11.669" style="fill:none;stroke:#852d2f;stroke-miterlimit:10;stroke-width:2px"/>
            <path d="M576.154,704.206l.349-.137a1.615,1.615,0,0,0,.913-2.095l-.883-2.25a1.618,1.618,0,0,0-2.1-.913l-.349.137a1.616,1.616,0,0,0-.913,2.1l.884,2.249A1.615,1.615,0,0,0,576.154,704.206Z" style="fill:#852d2f"/>
            <circle cx="681.908" cy="692.035" r="10.029" style="fill:none;stroke:#852d2f;stroke-miterlimit:10;stroke-width:2px"/>
            <circle cx="681.908" cy="692.035" r="6.096" style="fill:none;stroke:#852d2f;stroke-miterlimit:10;stroke-width:2px"/>
            <path d="M538.75,573.474c.469-1.243,1.736-11.523-4.791-14.751-4.086-2.021-35.087-4.679-54.079-8.125-14.688-2.092-21.677,8.893-23.993,15.964s-3.193,20.061,9.882,27.072c17.346,8.467,43.9,24.681,48.392,25.472,7.171,1.264,12.237-7.771,12.6-9.051" style="fill:none;stroke:#852d2f;stroke-miterlimit:10;stroke-width:2px"/>
            <path d="M455.786,566.87c-25.207-8.265-42.965-10.173-49.92,11.038-10.028,30.586,25.607,37.674,50.2,45.737,8.322,2.729,33.1,12.216,28.367,26.663s-29.305-1.311-35.961,10c-2.627,4.464-1.139,10.294.635,14.677" style="fill:none;stroke:#852d2f;stroke-miterlimit:10;stroke-width:2px"/>
            <path d="M535.733,574.992l.05-.372a1.616,1.616,0,0,1,1.817-1.387l2.395.321a1.616,1.616,0,0,1,1.387,1.817l-.05.372a1.616,1.616,0,0,1-1.816,1.387l-2.4-.322A1.616,1.616,0,0,1,535.733,574.992Z" style="fill:#852d2f"/>
            <path d="M525.2,607.117l-.18.329a1.618,1.618,0,0,0,.643,2.194l2.121,1.159a1.616,1.616,0,0,0,2.193-.643l.18-.329a1.618,1.618,0,0,0-.643-2.194l-2.12-1.159A1.617,1.617,0,0,0,525.2,607.117Z" style="fill:#852d2f"/>
            <path d="M463.125,592.168a31.907,31.907,0,0,1,13.521-41.829" style="fill:none;stroke:#852d2f;stroke-miterlimit:10;stroke-width:2px"/>
            <circle cx="451.854" cy="684.269" r="10.029" style="fill:none;stroke:#852d2f;stroke-miterlimit:10;stroke-width:2px"/>
            <circle cx="451.854" cy="684.269" r="6.096" style="fill:none;stroke:#852d2f;stroke-miterlimit:10;stroke-width:2px"/>
            <circle cx="625.326" cy="581.695" r="6.514" style="fill:none;stroke:#852d2f;stroke-miterlimit:10;stroke-width:2px"/>
            <circle cx="344.926" cy="665.044" r="3.834" style="fill:none;stroke:#852d2f;stroke-miterlimit:10;stroke-width:1.17701915250498px"/>
            <circle cx="354.578" cy="681.303" r="6.32" style="fill:none;stroke:#852d2f;stroke-miterlimit:10;stroke-width:1.94046099702902px"/>
            <path d="M203.184,602c-1.158.653-8.722,7.729-5.783,14.392,1.84,4.17,23.924,26.089,36.288,40.912,9.929,11.023,22.336,7.075,28.648,3.134s15.313-13.346,9.775-27.11c-7.88-17.62-17.862-47.091-20.8-50.576-4.693-5.568-14.374-1.884-15.469-1.131" style="fill:none;stroke:#852d2f;stroke-miterlimit:10;stroke-width:2px"/>
            <path d="M262.611,660.267c14.043,22.5,26.447,35.356,45.384,23.54,27.308-17.04,4.508-45.33-9.192-67.286-4.636-7.429-17.569-30.6-4.67-38.649s21.647,19.8,34.006,15.387c4.877-1.74,7.474-7.169,8.924-11.67" style="fill:none;stroke:#852d2f;stroke-miterlimit:10;stroke-width:2px"/>
            <path d="M206.472,602.77l-.277.254a1.617,1.617,0,0,1-2.283-.1l-1.633-1.783a1.617,1.617,0,0,1,.1-2.283l.277-.254a1.617,1.617,0,0,1,2.283.1l1.632,1.783A1.616,1.616,0,0,1,206.472,602.77Z" style="fill:#852d2f"/>
            <path d="M235.154,584.873l.349-.137a1.616,1.616,0,0,0,.913-2.1l-.883-2.249a1.616,1.616,0,0,0-2.1-.913l-.349.137a1.615,1.615,0,0,0-.913,2.1l.884,2.25A1.616,1.616,0,0,0,235.154,584.873Z" style="fill:#852d2f"/>
            <path d="M273.2,636.148A31.906,31.906,0,0,1,236,659.575" style="fill:none;stroke:#852d2f;stroke-miterlimit:10;stroke-width:2px"/>
            <circle cx="340.908" cy="572.702" r="10.029" style="fill:none;stroke:#852d2f;stroke-miterlimit:10;stroke-width:2px"/>
            <circle cx="340.908" cy="572.702" r="6.096" style="fill:none;stroke:#852d2f;stroke-miterlimit:10;stroke-width:2px"/>
            <path d="M197.75,454.141c.469-1.244,1.736-11.524-4.791-14.752-4.086-2.02-35.087-4.678-54.079-8.125-14.688-2.092-21.677,8.894-23.993,15.965s-3.193,20.061,9.882,27.071c17.346,8.468,43.9,24.682,48.392,25.473,7.171,1.263,12.237-7.771,12.6-9.052" style="fill:none;stroke:#852d2f;stroke-miterlimit:10;stroke-width:2px"/>
            <path d="M114.786,447.536c-25.207-8.264-42.965-10.172-49.92,11.039-10.028,30.586,25.607,37.674,50.2,45.737,8.322,2.728,33.1,12.215,28.367,26.663s-29.3-1.311-35.961,10c-2.627,4.463-1.139,10.294.635,14.677" style="fill:none;stroke:#852d2f;stroke-miterlimit:10;stroke-width:2px"/>
            <path d="M194.733,455.658l.05-.372A1.617,1.617,0,0,1,196.6,453.9l2.4.322a1.615,1.615,0,0,1,1.387,1.816l-.05.372a1.615,1.615,0,0,1-1.816,1.387l-2.4-.321A1.617,1.617,0,0,1,194.733,455.658Z" style="fill:#852d2f"/>
            <path d="M184.2,487.783l-.18.33a1.616,1.616,0,0,0,.643,2.193l2.121,1.16a1.616,1.616,0,0,0,2.193-.643l.18-.329a1.617,1.617,0,0,0-.643-2.194l-2.12-1.159A1.617,1.617,0,0,0,184.2,487.783Z" style="fill:#852d2f"/>
            <path d="M122.125,472.835a31.906,31.906,0,0,1,13.521-41.829" style="fill:none;stroke:#852d2f;stroke-miterlimit:10;stroke-width:2px"/>
            <circle cx="110.854" cy="564.936" r="10.029" style="fill:none;stroke:#852d2f;stroke-miterlimit:10;stroke-width:2px"/>
            <circle cx="110.854" cy="564.936" r="6.096" style="fill:none;stroke:#852d2f;stroke-miterlimit:10;stroke-width:2px"/>
            <path d="M120.722,760.484c1.292.313,11.65.308,14.052-6.567,1.5-4.3.333-35.4,1.42-54.668.272-14.833-11.489-20.42-18.791-21.85s-20.3-.7-25.652,13.133c-6.273,18.255-19.1,46.6-19.335,51.154-.373,7.273,9.215,11.19,10.53,11.388" style="fill:none;stroke:#852d2f;stroke-miterlimit:10;stroke-width:2px"/>
            <path d="M117.086,677.337c5.106-26.031,4.817-43.89-17.087-48.186-31.586-6.195-34.243,30.041-39.224,55.437-1.686,8.594-8.057,34.354-22.977,31.427s-2.3-29.244-14.34-34.46c-4.752-2.059-10.355.134-14.488,2.433" style="fill:none;stroke:#852d2f;stroke-miterlimit:10;stroke-width:2px"/>
            <path d="M92.881,687.728a31.905,31.905,0,0,1,43.173,8.281" style="fill:none;stroke:#852d2f;stroke-miterlimit:10;stroke-width:2px"/>
            <circle cx="0.092" cy="687.856" r="10.029" style="fill:none;stroke:#852d2f;stroke-miterlimit:10;stroke-width:2px"/>
            <circle cx="0.092" cy="687.856" r="6.096" style="fill:none;stroke:#852d2f;stroke-miterlimit:10;stroke-width:2px"/>
            <circle cx="284.326" cy="462.362" r="6.514" style="fill:none;stroke:#852d2f;stroke-miterlimit:10;stroke-width:2px"/>
            <circle cx="193.103" cy="716.246" r="6.514" style="fill:none;stroke:#852d2f;stroke-miterlimit:10;stroke-width:2px"/>
            <circle cx="3.926" cy="545.71" r="3.834" style="fill:none;stroke:#852d2f;stroke-miterlimit:10;stroke-width:1.17701915250498px"/>
            <circle cx="13.578" cy="561.97" r="6.32" style="fill:none;stroke:#852d2f;stroke-miterlimit:10;stroke-width:1.94046099702902px"/>
            <circle cx="1023.092" cy="329.856" r="10.029" style="fill:none;stroke:#852d2f;stroke-miterlimit:10;stroke-width:2px"/>
            <circle cx="1023.092" cy="329.856" r="6.096" style="fill:none;stroke:#852d2f;stroke-miterlimit:10;stroke-width:2px"/>
            <circle cx="1026.926" cy="187.71" r="3.834" style="fill:none;stroke:#852d2f;stroke-miterlimit:10;stroke-width:1.17701915250498px"/>
            <path d="M885.184,482.667c-1.158.653-8.722,7.729-5.783,14.391,1.84,4.171,23.924,26.089,36.288,40.912,9.929,11.024,22.336,7.076,28.648,3.135s15.313-13.347,9.775-27.11c-7.88-17.62-17.862-47.091-20.8-50.577-4.693-5.568-14.374-1.883-15.469-1.13" style="fill:none;stroke:#852d2f;stroke-miterlimit:10;stroke-width:2px"/>
            <path d="M944.611,540.934c14.043,22.5,26.447,35.356,45.384,23.539,27.308-17.039,4.508-45.329-9.192-67.285-4.636-7.43-17.569-30.6-4.67-38.649s21.647,19.8,34.006,15.387c4.877-1.741,7.474-7.169,8.924-11.67" style="fill:none;stroke:#852d2f;stroke-miterlimit:10;stroke-width:2px"/>
            <path d="M888.472,483.437l-.277.253a1.616,1.616,0,0,1-2.283-.1l-1.633-1.783a1.617,1.617,0,0,1,.1-2.283l.277-.254a1.615,1.615,0,0,1,2.283.1l1.632,1.782A1.617,1.617,0,0,1,888.472,483.437Z" style="fill:#852d2f"/>
            <path d="M917.154,465.54l.349-.138a1.615,1.615,0,0,0,.913-2.095l-.883-2.249a1.618,1.618,0,0,0-2.1-.914l-.349.138a1.615,1.615,0,0,0-.913,2.1l.884,2.249A1.616,1.616,0,0,0,917.154,465.54Z" style="fill:#852d2f"/>
            <path d="M955.2,516.815A31.906,31.906,0,0,1,918,540.242" style="fill:none;stroke:#852d2f;stroke-miterlimit:10;stroke-width:2px"/>
            <circle cx="1022.908" cy="453.368" r="10.029" style="fill:none;stroke:#852d2f;stroke-miterlimit:10;stroke-width:2px"/>
            <circle cx="1022.908" cy="453.368" r="6.096" style="fill:none;stroke:#852d2f;stroke-miterlimit:10;stroke-width:2px"/>
            <path d="M879.75,334.808c.469-1.244,1.736-11.524-4.791-14.752-4.086-2.021-35.087-4.678-54.079-8.125-14.688-2.092-21.677,8.894-23.993,15.965s-3.193,20.06,9.882,27.071c17.346,8.467,43.9,24.682,48.392,25.472,7.171,1.264,12.237-7.771,12.6-9.051" style="fill:none;stroke:#852d2f;stroke-miterlimit:10;stroke-width:2px"/>
            <path d="M796.786,328.2c-25.207-8.265-42.965-10.172-49.92,11.038-10.028,30.587,25.607,37.675,50.2,45.738,8.322,2.728,33.1,12.215,28.367,26.663s-29.305-1.311-35.961,10c-2.627,4.463-1.139,10.293.635,14.677" style="fill:none;stroke:#852d2f;stroke-miterlimit:10;stroke-width:2px"/>
            <path d="M876.733,336.325l.05-.372a1.616,1.616,0,0,1,1.817-1.387l2.395.321a1.616,1.616,0,0,1,1.387,1.817l-.05.372a1.615,1.615,0,0,1-1.816,1.387l-2.4-.321A1.617,1.617,0,0,1,876.733,336.325Z" style="fill:#852d2f"/>
            <path d="M866.2,368.45l-.18.33a1.616,1.616,0,0,0,.643,2.193l2.121,1.159a1.615,1.615,0,0,0,2.193-.642l.18-.33a1.616,1.616,0,0,0-.643-2.193l-2.12-1.16A1.617,1.617,0,0,0,866.2,368.45Z" style="fill:#852d2f"/>
            <path d="M804.125,353.5a31.907,31.907,0,0,1,13.521-41.829" style="fill:none;stroke:#852d2f;stroke-miterlimit:10;stroke-width:2px"/>
            <circle cx="792.854" cy="445.603" r="10.029" style="fill:none;stroke:#852d2f;stroke-miterlimit:10;stroke-width:2px"/>
            <circle cx="792.854" cy="445.603" r="6.096" style="fill:none;stroke:#852d2f;stroke-miterlimit:10;stroke-width:2px"/>
            <path d="M802.722,641.15c1.292.314,11.65.308,14.052-6.566,1.5-4.3.333-35.4,1.42-54.668.272-14.834-11.489-20.42-18.791-21.85s-20.3-.7-25.652,13.133c-6.273,18.254-19.1,46.6-19.335,51.154-.373,7.272,9.215,11.19,10.53,11.388" style="fill:none;stroke:#852d2f;stroke-miterlimit:10;stroke-width:2px"/>
            <path d="M799.086,558c5.106-26.031,4.817-43.889-17.087-48.185-31.586-6.2-34.243,30.041-39.224,55.437-1.686,8.594-8.057,34.353-22.977,31.427s-2.3-29.244-14.34-34.46c-4.752-2.059-10.355.134-14.488,2.433" style="fill:none;stroke:#852d2f;stroke-miterlimit:10;stroke-width:2px"/>
            <path d="M800.846,638.343l.375,0a1.616,1.616,0,0,1,1.6,1.632L802.8,642.4a1.616,1.616,0,0,1-1.632,1.6l-.376,0a1.616,1.616,0,0,1-1.6-1.633l.024-2.416A1.616,1.616,0,0,1,800.846,638.343Z" style="fill:#852d2f"/>
            <path d="M767.67,631.836l-.349-.138a1.616,1.616,0,0,0-2.1.907l-.89,2.247a1.617,1.617,0,0,0,.908,2.1l.349.138a1.616,1.616,0,0,0,2.1-.907l.89-2.247A1.617,1.617,0,0,0,767.67,631.836Z" style="fill:#852d2f"/>
            <path d="M774.881,568.394a31.908,31.908,0,0,1,43.173,8.281" style="fill:none;stroke:#852d2f;stroke-miterlimit:10;stroke-width:2px"/>
            <circle cx="682.092" cy="568.523" r="10.029" style="fill:none;stroke:#852d2f;stroke-miterlimit:10;stroke-width:2px"/>
            <circle cx="682.092" cy="568.523" r="6.096" style="fill:none;stroke:#852d2f;stroke-miterlimit:10;stroke-width:2px"/>
            <circle cx="966.326" cy="343.029" r="6.514" style="fill:none;stroke:#852d2f;stroke-miterlimit:10;stroke-width:2px"/>
            <circle cx="875.103" cy="596.912" r="6.514" style="fill:none;stroke:#852d2f;stroke-miterlimit:10;stroke-width:2px"/>
            <circle cx="895.765" cy="617.061" r="9.924" style="fill:none;stroke:#852d2f;stroke-miterlimit:10;stroke-width:2px"/>
            <circle cx="685.926" cy="426.377" r="3.834" style="fill:none;stroke:#852d2f;stroke-miterlimit:10;stroke-width:1.17701915250498px"/>
            <circle cx="695.578" cy="442.637" r="6.32" style="fill:none;stroke:#852d2f;stroke-miterlimit:10;stroke-width:1.94046099702902px"/>
            <path d="M544.184,363.334c-1.158.653-8.722,7.729-5.783,14.391,1.84,4.171,23.924,26.089,36.288,40.912,9.929,11.024,22.336,7.075,28.648,3.135s15.313-13.347,9.775-27.11c-7.88-17.621-17.862-47.091-20.8-50.577-4.693-5.568-14.374-1.884-15.469-1.131" style="fill:none;stroke:#852d2f;stroke-miterlimit:10;stroke-width:2px"/>
            <path d="M603.611,421.6c14.043,22.5,26.447,35.356,45.384,23.539,27.308-17.04,4.508-45.329-9.192-67.285-4.636-7.43-17.569-30.6-4.67-38.65s21.647,19.8,34.006,15.387c4.877-1.74,7.474-7.168,8.924-11.669" style="fill:none;stroke:#852d2f;stroke-miterlimit:10;stroke-width:2px"/>
            <path d="M547.472,364.1l-.277.254a1.615,1.615,0,0,1-2.283-.1l-1.633-1.782a1.618,1.618,0,0,1,.1-2.284l.277-.253a1.616,1.616,0,0,1,2.283.1l1.632,1.783A1.616,1.616,0,0,1,547.472,364.1Z" style="fill:#852d2f"/>
            <path d="M576.154,346.206l.349-.137a1.615,1.615,0,0,0,.913-2.1l-.883-2.25a1.618,1.618,0,0,0-2.1-.913l-.349.137a1.616,1.616,0,0,0-.913,2.1l.884,2.249A1.615,1.615,0,0,0,576.154,346.206Z" style="fill:#852d2f"/>
            <path d="M614.2,397.482A31.908,31.908,0,0,1,577,420.909" style="fill:none;stroke:#852d2f;stroke-miterlimit:10;stroke-width:2px"/>
            <circle cx="681.908" cy="334.035" r="10.029" style="fill:none;stroke:#852d2f;stroke-miterlimit:10;stroke-width:2px"/>
            <circle cx="681.908" cy="334.035" r="6.096" style="fill:none;stroke:#852d2f;stroke-miterlimit:10;stroke-width:2px"/>
            <path d="M538.75,215.474c.469-1.243,1.736-11.523-4.791-14.751-4.086-2.021-35.087-4.679-54.079-8.125-14.688-2.092-21.677,8.893-23.993,15.964s-3.193,20.061,9.882,27.072c17.346,8.467,43.9,24.681,48.392,25.472,7.171,1.264,12.237-7.771,12.6-9.051" style="fill:none;stroke:#852d2f;stroke-miterlimit:10;stroke-width:2px"/>
            <path d="M455.786,208.87c-25.207-8.265-42.965-10.173-49.92,11.038-10.028,30.586,25.607,37.674,50.2,45.737,8.322,2.729,33.1,12.216,28.367,26.663s-29.305-1.311-35.961,10c-2.627,4.464-1.139,10.294.635,14.677" style="fill:none;stroke:#852d2f;stroke-miterlimit:10;stroke-width:2px"/>
            <path d="M535.733,216.992l.05-.372a1.616,1.616,0,0,1,1.817-1.387l2.395.321a1.616,1.616,0,0,1,1.387,1.817l-.05.372a1.616,1.616,0,0,1-1.816,1.387l-2.4-.322A1.616,1.616,0,0,1,535.733,216.992Z" style="fill:#852d2f"/>
            <path d="M525.2,249.117l-.18.329a1.618,1.618,0,0,0,.643,2.194l2.121,1.159a1.616,1.616,0,0,0,2.193-.643l.18-.329a1.618,1.618,0,0,0-.643-2.194l-2.12-1.159A1.617,1.617,0,0,0,525.2,249.117Z" style="fill:#852d2f"/>
            <path d="M463.125,234.168a31.907,31.907,0,0,1,13.521-41.829" style="fill:none;stroke:#852d2f;stroke-miterlimit:10;stroke-width:2px"/>
            <circle cx="451.854" cy="326.269" r="10.029" style="fill:none;stroke:#852d2f;stroke-miterlimit:10;stroke-width:2px"/>
            <circle cx="451.854" cy="326.269" r="6.096" style="fill:none;stroke:#852d2f;stroke-miterlimit:10;stroke-width:2px"/>
            <path d="M461.722,521.817c1.292.313,11.65.308,14.052-6.567,1.5-4.3.333-35.4,1.42-54.667.272-14.834-11.489-20.421-18.791-21.851s-20.3-.7-25.652,13.134c-6.273,18.254-19.1,46.6-19.335,51.154-.373,7.272,9.215,11.19,10.53,11.388" style="fill:none;stroke:#852d2f;stroke-miterlimit:10;stroke-width:2px"/>
            <path d="M458.086,438.67c5.106-26.031,4.817-43.889-17.087-48.186-31.586-6.195-34.243,30.042-39.224,55.438-1.686,8.593-8.057,34.353-22.977,31.427s-2.3-29.245-14.34-34.461c-4.752-2.058-10.355.135-14.488,2.433" style="fill:none;stroke:#852d2f;stroke-miterlimit:10;stroke-width:2px"/>
            <path d="M459.846,519.01l.375,0a1.617,1.617,0,0,1,1.6,1.633l-.025,2.417a1.615,1.615,0,0,1-1.632,1.6l-.376,0a1.616,1.616,0,0,1-1.6-1.633l.024-2.417A1.616,1.616,0,0,1,459.846,519.01Z" style="fill:#852d2f"/>
            <path d="M426.67,512.5l-.349-.139a1.617,1.617,0,0,0-2.1.908l-.89,2.247a1.617,1.617,0,0,0,.908,2.1l.349.138a1.616,1.616,0,0,0,2.1-.908l.89-2.246A1.617,1.617,0,0,0,426.67,512.5Z" style="fill:#852d2f"/>
            <path d="M433.881,449.061a31.905,31.905,0,0,1,43.173,8.281" style="fill:none;stroke:#852d2f;stroke-miterlimit:10;stroke-width:2px"/>
            <circle cx="341.092" cy="449.189" r="10.029" style="fill:none;stroke:#852d2f;stroke-miterlimit:10;stroke-width:2px"/>
            <circle cx="341.092" cy="449.189" r="6.096" style="fill:none;stroke:#852d2f;stroke-miterlimit:10;stroke-width:2px"/>
            <circle cx="625.326" cy="223.695" r="6.514" style="fill:none;stroke:#852d2f;stroke-miterlimit:10;stroke-width:2px"/>
            <circle cx="534.103" cy="477.579" r="6.514" style="fill:none;stroke:#852d2f;stroke-miterlimit:10;stroke-width:2px"/>
            <circle cx="554.765" cy="497.728" r="9.924" style="fill:none;stroke:#852d2f;stroke-miterlimit:10;stroke-width:2px"/>
            <circle cx="344.926" cy="307.044" r="3.834" style="fill:none;stroke:#852d2f;stroke-miterlimit:10;stroke-width:1.17701915250498px"/>
            <circle cx="354.578" cy="323.303" r="6.32" style="fill:none;stroke:#852d2f;stroke-miterlimit:10;stroke-width:1.94046099702902px"/>
            <path d="M203.184,244c-1.158.653-8.722,7.729-5.783,14.392,1.84,4.17,23.924,26.089,36.288,40.912,9.929,11.023,22.336,7.075,28.648,3.134s15.313-13.346,9.775-27.11c-7.88-17.62-17.862-47.091-20.8-50.576-4.693-5.568-14.374-1.884-15.469-1.131" style="fill:none;stroke:#852d2f;stroke-miterlimit:10;stroke-width:2px"/>
            <path d="M262.611,302.267c14.043,22.5,26.447,35.356,45.384,23.54,27.308-17.04,4.508-45.33-9.192-67.286-4.636-7.429-17.569-30.6-4.67-38.649s21.647,19.8,34.006,15.387c4.877-1.74,7.474-7.169,8.924-11.67" style="fill:none;stroke:#852d2f;stroke-miterlimit:10;stroke-width:2px"/>
            <path d="M206.472,244.77l-.277.254a1.617,1.617,0,0,1-2.283-.1l-1.633-1.783a1.617,1.617,0,0,1,.1-2.283l.277-.254a1.617,1.617,0,0,1,2.283.1l1.632,1.783A1.616,1.616,0,0,1,206.472,244.77Z" style="fill:#852d2f"/>
            <path d="M235.154,226.873l.349-.137a1.616,1.616,0,0,0,.913-2.1l-.883-2.249a1.616,1.616,0,0,0-2.1-.913l-.349.137a1.615,1.615,0,0,0-.913,2.095l.884,2.25A1.616,1.616,0,0,0,235.154,226.873Z" style="fill:#852d2f"/>
            <path d="M273.2,278.148A31.906,31.906,0,0,1,236,301.575" style="fill:none;stroke:#852d2f;stroke-miterlimit:10;stroke-width:2px"/>
            <circle cx="340.908" cy="214.702" r="10.029" style="fill:none;stroke:#852d2f;stroke-miterlimit:10;stroke-width:2px"/>
            <circle cx="340.908" cy="214.702" r="6.096" style="fill:none;stroke:#852d2f;stroke-miterlimit:10;stroke-width:2px"/>
            <path d="M197.75,96.141c.469-1.244,1.736-11.524-4.791-14.752-4.086-2.02-35.087-4.678-54.079-8.125-14.688-2.092-21.677,8.894-23.993,15.965s-3.193,20.061,9.882,27.071c17.346,8.468,43.9,24.682,48.392,25.473,7.171,1.263,12.237-7.771,12.6-9.052" style="fill:none;stroke:#852d2f;stroke-miterlimit:10;stroke-width:2px"/>
            <path d="M114.786,89.536c-25.207-8.264-42.965-10.172-49.92,11.039-10.028,30.586,25.607,37.674,50.2,45.737,8.322,2.728,33.1,12.215,28.367,26.663s-29.3-1.311-35.961,10c-2.627,4.463-1.139,10.294.635,14.677" style="fill:none;stroke:#852d2f;stroke-miterlimit:10;stroke-width:2px"/>
            <path d="M194.733,97.658l.05-.372A1.617,1.617,0,0,1,196.6,95.9l2.4.322a1.615,1.615,0,0,1,1.387,1.816l-.05.372a1.615,1.615,0,0,1-1.816,1.387l-2.4-.321A1.617,1.617,0,0,1,194.733,97.658Z" style="fill:#852d2f"/>
            <path d="M184.2,129.783l-.18.33a1.616,1.616,0,0,0,.643,2.193l2.121,1.16a1.616,1.616,0,0,0,2.193-.643l.18-.329a1.617,1.617,0,0,0-.643-2.194l-2.12-1.159A1.617,1.617,0,0,0,184.2,129.783Z" style="fill:#852d2f"/>
            <path d="M122.125,114.835a31.906,31.906,0,0,1,13.521-41.829" style="fill:none;stroke:#852d2f;stroke-miterlimit:10;stroke-width:2px"/>
            <circle cx="110.854" cy="206.936" r="10.029" style="fill:none;stroke:#852d2f;stroke-miterlimit:10;stroke-width:2px"/>
            <circle cx="110.854" cy="206.936" r="6.096" style="fill:none;stroke:#852d2f;stroke-miterlimit:10;stroke-width:2px"/>
            <path d="M120.722,402.484c1.292.313,11.65.308,14.052-6.567,1.5-4.3.333-35.4,1.42-54.668.272-14.833-11.489-20.42-18.791-21.85s-20.3-.7-25.652,13.133c-6.273,18.255-19.1,46.6-19.335,51.154-.373,7.273,9.215,11.19,10.53,11.388" style="fill:none;stroke:#852d2f;stroke-miterlimit:10;stroke-width:2px"/>
            <path d="M117.086,319.337c5.106-26.031,4.817-43.89-17.087-48.186-31.586-6.195-34.243,30.041-39.224,55.437-1.686,8.594-8.057,34.354-22.977,31.427s-2.3-29.244-14.34-34.46c-4.752-2.059-10.355.134-14.488,2.433" style="fill:none;stroke:#852d2f;stroke-miterlimit:10;stroke-width:2px"/>
            <path d="M118.846,399.676l.375,0a1.616,1.616,0,0,1,1.6,1.633l-.025,2.416a1.616,1.616,0,0,1-1.632,1.6l-.376,0a1.616,1.616,0,0,1-1.6-1.632l.024-2.417A1.616,1.616,0,0,1,118.846,399.676Z" style="fill:#852d2f"/>
            <path d="M85.67,393.169l-.349-.138a1.617,1.617,0,0,0-2.1.907l-.89,2.247a1.617,1.617,0,0,0,.908,2.1l.349.139a1.617,1.617,0,0,0,2.1-.908l.89-2.247A1.617,1.617,0,0,0,85.67,393.169Z" style="fill:#852d2f"/>
            <path d="M92.881,329.728a31.905,31.905,0,0,1,43.173,8.281" style="fill:none;stroke:#852d2f;stroke-miterlimit:10;stroke-width:2px"/>
            <circle cx="0.092" cy="329.856" r="10.029" style="fill:none;stroke:#852d2f;stroke-miterlimit:10;stroke-width:2px"/>
            <circle cx="0.092" cy="329.856" r="6.096" style="fill:none;stroke:#852d2f;stroke-miterlimit:10;stroke-width:2px"/>
            <circle cx="284.326" cy="104.362" r="6.514" style="fill:none;stroke:#852d2f;stroke-miterlimit:10;stroke-width:2px"/>
            <circle cx="193.103" cy="358.246" r="6.514" style="fill:none;stroke:#852d2f;stroke-miterlimit:10;stroke-width:2px"/>
            <circle cx="213.765" cy="378.395" r="9.924" style="fill:none;stroke:#852d2f;stroke-miterlimit:10;stroke-width:2px"/>
            <circle cx="3.926" cy="187.71" r="3.834" style="fill:none;stroke:#852d2f;stroke-miterlimit:10;stroke-width:1.17701915250498px"/>
            <circle cx="13.578" cy="203.97" r="6.32" style="fill:none;stroke:#852d2f;stroke-miterlimit:10;stroke-width:1.94046099702902px"/>
            <circle cx="-0.092" cy="453.368" r="10.029" style="fill:none;stroke:#852d2f;stroke-miterlimit:10;stroke-width:2px"/>
            <circle cx="-0.092" cy="453.368" r="6.096" style="fill:none;stroke:#852d2f;stroke-miterlimit:10;stroke-width:2px"/>
            <path d="M885.184,124.667c-1.158.653-8.722,7.729-5.783,14.391,1.84,4.171,23.924,26.089,36.288,40.912,9.929,11.024,22.336,7.076,28.648,3.135s15.313-13.347,9.775-27.11c-7.88-17.62-17.862-47.091-20.8-50.577-4.693-5.568-14.374-1.883-15.469-1.13" style="fill:none;stroke:#852d2f;stroke-miterlimit:10;stroke-width:2px"/>
            <path d="M944.611,182.934c14.043,22.5,26.447,35.356,45.384,23.539,27.308-17.039,4.508-45.329-9.192-67.285-4.636-7.43-17.569-30.6-4.67-38.649s21.647,19.8,34.006,15.387c4.877-1.741,7.474-7.169,8.924-11.67" style="fill:none;stroke:#852d2f;stroke-miterlimit:10;stroke-width:2px"/>
            <path d="M888.472,125.437l-.277.253a1.616,1.616,0,0,1-2.283-.1l-1.633-1.783a1.617,1.617,0,0,1,.1-2.283l.277-.254a1.615,1.615,0,0,1,2.283.1l1.632,1.782A1.617,1.617,0,0,1,888.472,125.437Z" style="fill:#852d2f"/>
            <path d="M917.154,107.54l.349-.138a1.615,1.615,0,0,0,.913-2.095l-.883-2.249a1.618,1.618,0,0,0-2.1-.914l-.349.138a1.615,1.615,0,0,0-.913,2.095l.884,2.249A1.616,1.616,0,0,0,917.154,107.54Z" style="fill:#852d2f"/>
            <path d="M955.2,158.815A31.906,31.906,0,0,1,918,182.242" style="fill:none;stroke:#852d2f;stroke-miterlimit:10;stroke-width:2px"/>
            <circle cx="1022.908" cy="95.368" r="10.029" style="fill:none;stroke:#852d2f;stroke-miterlimit:10;stroke-width:2px"/>
            <circle cx="1022.908" cy="95.368" r="6.096" style="fill:none;stroke:#852d2f;stroke-miterlimit:10;stroke-width:2px"/>
            <path d="M879.75-23.192c.469-1.244,1.736-11.524-4.791-14.752-4.086-2.021-35.087-4.678-54.079-8.125C806.192-48.161,799.2-37.175,796.887-30.1s-3.193,20.06,9.882,27.071c17.346,8.467,43.9,24.682,48.392,25.472,7.171,1.264,12.237-7.771,12.6-9.051" style="fill:none;stroke:#852d2f;stroke-miterlimit:10;stroke-width:2px"/>
            <path d="M796.786-29.8c-25.207-8.265-42.965-10.172-49.92,11.038-10.028,30.587,25.607,37.675,50.2,45.738,8.322,2.728,33.1,12.215,28.367,26.663s-29.305-1.311-35.961,10c-2.627,4.463-1.139,10.293.635,14.677" style="fill:none;stroke:#852d2f;stroke-miterlimit:10;stroke-width:2px"/>
            <path d="M866.2,10.45l-.18.33a1.616,1.616,0,0,0,.643,2.193l2.121,1.159a1.615,1.615,0,0,0,2.193-.642l.18-.33a1.616,1.616,0,0,0-.643-2.193l-2.12-1.16A1.617,1.617,0,0,0,866.2,10.45Z" style="fill:#852d2f"/>
            <circle cx="792.854" cy="87.603" r="10.029" style="fill:none;stroke:#852d2f;stroke-miterlimit:10;stroke-width:2px"/>
            <circle cx="792.854" cy="87.603" r="6.096" style="fill:none;stroke:#852d2f;stroke-miterlimit:10;stroke-width:2px"/>
            <path d="M802.722,283.15c1.292.314,11.65.308,14.052-6.566,1.5-4.3.333-35.4,1.42-54.668.272-14.834-11.489-20.42-18.791-21.85s-20.3-.7-25.652,13.133c-6.273,18.254-19.1,46.6-19.335,51.154-.373,7.272,9.215,11.19,10.53,11.388" style="fill:none;stroke:#852d2f;stroke-miterlimit:10;stroke-width:2px"/>
            <path d="M799.086,200c5.106-26.031,4.817-43.889-17.087-48.185-31.586-6.2-34.243,30.041-39.224,55.437-1.686,8.594-8.057,34.353-22.977,31.427s-2.3-29.244-14.34-34.46c-4.752-2.059-10.355.134-14.488,2.433" style="fill:none;stroke:#852d2f;stroke-miterlimit:10;stroke-width:2px"/>
            <path d="M800.846,280.343l.375,0a1.616,1.616,0,0,1,1.6,1.632L802.8,284.4a1.616,1.616,0,0,1-1.632,1.6l-.376,0a1.616,1.616,0,0,1-1.6-1.633l.024-2.416A1.616,1.616,0,0,1,800.846,280.343Z" style="fill:#852d2f"/>
            <path d="M767.67,273.836l-.349-.138a1.616,1.616,0,0,0-2.1.907l-.89,2.247a1.617,1.617,0,0,0,.908,2.1l.349.138a1.616,1.616,0,0,0,2.1-.907l.89-2.247A1.617,1.617,0,0,0,767.67,273.836Z" style="fill:#852d2f"/>
            <path d="M774.881,210.394a31.908,31.908,0,0,1,43.173,8.281" style="fill:none;stroke:#852d2f;stroke-miterlimit:10;stroke-width:2px"/>
            <circle cx="682.092" cy="210.523" r="10.029" style="fill:none;stroke:#852d2f;stroke-miterlimit:10;stroke-width:2px"/>
            <circle cx="682.092" cy="210.523" r="6.096" style="fill:none;stroke:#852d2f;stroke-miterlimit:10;stroke-width:2px"/>
            <circle cx="875.103" cy="238.912" r="6.514" style="fill:none;stroke:#852d2f;stroke-miterlimit:10;stroke-width:2px"/>
            <circle cx="895.765" cy="259.061" r="9.924" style="fill:none;stroke:#852d2f;stroke-miterlimit:10;stroke-width:2px"/>
            <circle cx="685.926" cy="68.377" r="3.834" style="fill:none;stroke:#852d2f;stroke-miterlimit:10;stroke-width:1.17701915250498px"/>
            <circle cx="695.578" cy="84.637" r="6.32" style="fill:none;stroke:#852d2f;stroke-miterlimit:10;stroke-width:1.94046099702902px"/>
            <path d="M544.184,5.334c-1.158.653-8.722,7.729-5.783,14.391,1.84,4.171,23.924,26.089,36.288,40.912,9.929,11.024,22.336,7.075,28.648,3.135s15.313-13.347,9.775-27.11c-7.88-17.621-17.862-47.091-20.8-50.577-4.693-5.568-14.374-1.884-15.469-1.131" style="fill:none;stroke:#852d2f;stroke-miterlimit:10;stroke-width:2px"/>
            <path d="M603.611,63.6C617.654,86.106,630.058,98.957,649,87.14,676.3,70.1,653.5,41.811,639.8,19.855c-4.636-7.43-17.569-30.6-4.67-38.65S656.78,1,669.139-3.408c4.877-1.74,7.474-7.168,8.924-11.669" style="fill:none;stroke:#852d2f;stroke-miterlimit:10;stroke-width:2px"/>
            <path d="M547.472,6.1l-.277.254a1.615,1.615,0,0,1-2.283-.1l-1.633-1.782a1.618,1.618,0,0,1,.1-2.284l.277-.253a1.616,1.616,0,0,1,2.283.1l1.632,1.783A1.616,1.616,0,0,1,547.472,6.1Z" style="fill:#852d2f"/>
            <path d="M614.2,39.482A31.908,31.908,0,0,1,577,62.909" style="fill:none;stroke:#852d2f;stroke-miterlimit:10;stroke-width:2px"/>
            <path d="M461.722,163.817c1.292.313,11.65.308,14.052-6.567,1.5-4.3.333-35.4,1.42-54.667.272-14.834-11.489-20.421-18.791-21.851s-20.3-.7-25.652,13.134c-6.273,18.254-19.1,46.6-19.335,51.154-.373,7.272,9.215,11.19,10.53,11.388" style="fill:none;stroke:#852d2f;stroke-miterlimit:10;stroke-width:2px"/>
            <path d="M458.086,80.67C463.192,54.639,462.9,36.781,441,32.484c-31.586-6.195-34.243,30.042-39.224,55.438-1.686,8.593-8.057,34.353-22.977,31.427s-2.3-29.245-14.34-34.461c-4.752-2.058-10.355.135-14.488,2.433" style="fill:none;stroke:#852d2f;stroke-miterlimit:10;stroke-width:2px"/>
            <path d="M459.846,161.01l.375,0a1.617,1.617,0,0,1,1.6,1.633l-.025,2.417a1.615,1.615,0,0,1-1.632,1.6l-.376,0a1.616,1.616,0,0,1-1.6-1.633l.024-2.417A1.616,1.616,0,0,1,459.846,161.01Z" style="fill:#852d2f"/>
            <path d="M426.67,154.5l-.349-.139a1.617,1.617,0,0,0-2.1.908l-.89,2.247a1.617,1.617,0,0,0,.908,2.1l.349.138a1.616,1.616,0,0,0,2.1-.908l.89-2.246A1.617,1.617,0,0,0,426.67,154.5Z" style="fill:#852d2f"/>
            <path d="M433.881,91.061a31.905,31.905,0,0,1,43.173,8.281" style="fill:none;stroke:#852d2f;stroke-miterlimit:10;stroke-width:2px"/>
            <circle cx="341.092" cy="91.189" r="10.029" style="fill:none;stroke:#852d2f;stroke-miterlimit:10;stroke-width:2px"/>
            <circle cx="341.092" cy="91.189" r="6.096" style="fill:none;stroke:#852d2f;stroke-miterlimit:10;stroke-width:2px"/>
            <circle cx="534.103" cy="119.579" r="6.514" style="fill:none;stroke:#852d2f;stroke-miterlimit:10;stroke-width:2px"/>
            <circle cx="554.765" cy="139.728" r="9.924" style="fill:none;stroke:#852d2f;stroke-miterlimit:10;stroke-width:2px"/>
            <path d="M120.722,44.484c1.292.313,11.65.308,14.052-6.567,1.5-4.3.333-35.4,1.42-54.668.272-14.833-11.489-20.42-18.791-21.85s-20.3-.7-25.652,13.133c-6.273,18.255-19.1,46.6-19.335,51.154-.373,7.273,9.215,11.19,10.53,11.388" style="fill:none;stroke:#852d2f;stroke-miterlimit:10;stroke-width:2px"/>
            <path d="M117.086-38.663C122.192-64.694,121.9-82.553,100-86.849,68.413-93.044,65.756-56.808,60.775-31.412,59.089-22.818,52.718,2.942,37.8.015s-2.3-29.244-14.34-34.46C18.706-36.5,13.1-34.311,8.97-32.012" style="fill:none;stroke:#852d2f;stroke-miterlimit:10;stroke-width:2px"/>
            <path d="M118.846,41.676l.375,0a1.616,1.616,0,0,1,1.6,1.633l-.025,2.416a1.616,1.616,0,0,1-1.632,1.6l-.376,0a1.616,1.616,0,0,1-1.6-1.632l.024-2.417A1.616,1.616,0,0,1,118.846,41.676Z" style="fill:#852d2f"/>
            <path d="M85.67,35.169l-.349-.138a1.617,1.617,0,0,0-2.1.907l-.89,2.247a1.617,1.617,0,0,0,.908,2.1l.349.139a1.617,1.617,0,0,0,2.1-.908l.89-2.247A1.617,1.617,0,0,0,85.67,35.169Z" style="fill:#852d2f"/>
            <circle cx="193.103" cy="0.246" r="6.514" style="fill:none;stroke:#852d2f;stroke-miterlimit:10;stroke-width:2px"/>
            <circle cx="213.765" cy="20.395" r="9.924" style="fill:none;stroke:#852d2f;stroke-miterlimit:10;stroke-width:2px"/>
            <circle cx="-0.092" cy="95.368" r="10.029" style="fill:none;stroke:#852d2f;stroke-miterlimit:10;stroke-width:2px"/>
            <circle cx="-0.092" cy="95.368" r="6.096" style="fill:none;stroke:#852d2f;stroke-miterlimit:10;stroke-width:2px"/>
        </pattern>
    </defs>
    <title>Ресурс 7</title>
    <rect width="1022.625" height="716.061" style="fill:url(#a);opacity:0.15"/>
    <rect width="1022.625" height="716.061" style="fill:none"/>
</svg>