<svg viewBox="0 0 1022.63 716.06"
    xmlns="http://www.w3.org/2000/svg"
    xmlns:xlink="http://www.w3.org/1999/xlink">
    <style>:root>svg{display:none}:root>svg:target{display:block}</style>
    <svg viewBox="0 0 250 250" id="cross"
        xmlns="http://www.w3.org/2000/svg">
        <defs>
            <pattern id="a" width="260" height="260" patternTransform="matrix(.96 0 0 .96 50 20)" patternUnits="userSpaceOnUse">
                <path fill="none" d="M0 0h260v260H0z"/>
                <path d="M221.257 241.687l-17.3 5a2 2 0 01-2.476-1.366l-5-17.3a2 2 0 00-2.477-1.367l-15.958 4.611a2 2 0 00-1.366 2.476l5 17.3a2 2 0 01-1.366 2.477l-17.3 5a2 2 0 00-1.367 2.477l4.611 15.958a2 2 0 002.477 1.366l17.3-5a2 2 0 012.476 1.366l5 17.3a2 2 0 002.476 1.367l15.958-4.611a2 2 0 001.366-2.477l-5-17.3a2 2 0 011.366-2.476l17.3-5a2 2 0 001.367-2.477l-4.611-15.958a2 2 0 00-2.476-1.366zM91.257 241.687l-17.3 5a2 2 0 01-2.476-1.366l-5-17.3a2 2 0 00-2.477-1.367l-15.958 4.611a2 2 0 00-1.366 2.476l5 17.3a2 2 0 01-1.366 2.477l-17.3 5a2 2 0 00-1.367 2.477l4.611 15.958a2 2 0 002.477 1.366l17.3-5a2 2 0 012.476 1.366l5 17.3a2 2 0 002.476 1.367l15.958-4.611a2 2 0 001.366-2.477l-5-17.3a2 2 0 011.366-2.476l17.3-5a2 2 0 001.367-2.477l-4.611-15.958a2 2 0 00-2.476-1.366zM286.257 111.687l-17.3 5a2 2 0 01-2.476-1.366l-5-17.3a2 2 0 00-2.477-1.367l-15.958 4.611a2 2 0 00-1.366 2.476l5 17.3a2 2 0 01-1.366 2.477l-17.3 5a2 2 0 00-1.367 2.477l4.611 15.958a2 2 0 002.477 1.366l17.3-5a2 2 0 012.476 1.366l5 17.3a2 2 0 002.476 1.367l15.958-4.611a2 2 0 001.366-2.477l-5-17.3a2 2 0 011.366-2.476l17.3-5a2 2 0 001.367-2.477l-4.611-15.958a2 2 0 00-2.476-1.366zM156.257 111.687l-17.3 5a2 2 0 01-2.476-1.366l-5-17.3a2 2 0 00-2.477-1.367l-15.958 4.611a2 2 0 00-1.366 2.476l5 17.3a2 2 0 01-1.366 2.477l-17.3 5a2 2 0 00-1.367 2.477l4.611 15.958a2 2 0 002.477 1.366l17.3-5a2 2 0 012.476 1.366l5 17.3a2 2 0 002.476 1.367l15.958-4.611a2 2 0 001.366-2.477l-5-17.3a2 2 0 011.366-2.476l17.3-5a2 2 0 001.367-2.477l-4.611-15.958a2 2 0 00-2.476-1.366zM26.257 111.687l-17.3 5a2 2 0 01-2.476-1.366l-5-17.3a2 2 0 00-2.47-1.366l-15.958 4.611a2 2 0 00-1.366 2.476l5 17.3a2 2 0 01-1.366 2.477l-17.3 5a2 2 0 00-1.367 2.477l4.611 15.958a2 2 0 002.477 1.366l17.3-5a2 2 0 012.476 1.366l5 17.3a2 2 0 002.476 1.367l15.958-4.611a2 2 0 001.366-2.477l-5-17.3a2 2 0 011.366-2.476l17.3-5a2 2 0 001.367-2.477l-4.611-15.958a2 2 0 00-2.483-1.367zM221.257-18.313l-17.3 5a2 2 0 01-2.476-1.366l-5-17.3a2 2 0 00-2.477-1.367l-15.958 4.611a2 2 0 00-1.366 2.476l5 17.3a2 2 0 01-1.366 2.477l-17.3 5a2 2 0 00-1.359 2.471l4.611 15.958a2 2 0 002.477 1.366l17.3-5a2 2 0 012.476 1.366l5 17.3a2 2 0 002.476 1.367l15.958-4.611a2 2 0 001.366-2.477l-5-17.3a2 2 0 011.366-2.476l17.3-5a2 2 0 001.367-2.477l-4.611-15.958a2 2 0 00-2.484-1.36zM91.257-18.313l-17.3 5a2 2 0 01-2.476-1.366l-5-17.3a2 2 0 00-2.477-1.367l-15.951 4.612a2 2 0 00-1.366 2.476l5 17.3a2 2 0 01-1.366 2.477l-17.3 5a2 2 0 00-1.366 2.47l4.611 15.958a2 2 0 002.477 1.366l17.3-5a2 2 0 012.476 1.366l5 17.3a2 2 0 002.476 1.367l15.958-4.611a2 2 0 001.366-2.477l-5-17.3a2 2 0 011.366-2.476l17.3-5a2 2 0 001.36-2.471l-4.611-15.958a2 2 0 00-2.477-1.366z" fill="none" stroke="#852d2f" stroke-miterlimit="10" stroke-width="2"/>
            </pattern>
        </defs>
        <path fill="url(#a)" opacity=".15" d="M0 0h250v250H0z"/>
        <path fill="none" d="M0 0h250v250H0z"/>
    </svg>
    <svg viewBox="0 0 181.606 336.182" id="pill"
        xmlns="http://www.w3.org/2000/svg">
        <defs>
            <pattern id="a" width="180" height="113" patternUnits="userSpaceOnUse">
                <path fill="none" d="M0 0h180v113H0z"/>
                <path d="M142.673 66.617a8.413 8.413 0 00-5.987 2.48l-23.13 23.13a8.468 8.468 0 0011.975 11.973l23.13-23.13a8.468 8.468 0 00-5.988-14.455m0-2a10.435 10.435 0 017.4 3.066 10.467 10.467 0 010 14.8l-23.13 23.131a10.468 10.468 0 01-14.8-14.8l23.131-23.13a10.435 10.435 0 017.4-3.066z" fill="#852d2f"/>
                <path d="M149.959 67.8a10.467 10.467 0 00-14.8 0l-11.221 11.217 14.8 14.8L149.959 82.6a10.467 10.467 0 000-14.8z" fill="#852d2f" fill-rule="evenodd"/>
                <path d="M37.327 6.318a8.468 8.468 0 00-5.988 14.455L54.469 43.9a8.468 8.468 0 1011.975-11.972L43.314 8.8a8.409 8.409 0 00-5.987-2.48m0-2a10.436 10.436 0 017.4 3.065l23.132 23.129a10.469 10.469 0 010 14.8 10.468 10.468 0 01-14.8 0l-23.13-23.13a10.468 10.468 0 010-14.8 10.438 10.438 0 017.4-3.065z" fill="#852d2f"/>
                <path d="M30.041 7.5a10.467 10.467 0 000 14.8l11.218 11.221 14.8-14.8L44.844 7.5a10.467 10.467 0 00-14.803 0z" fill="#852d2f" fill-rule="evenodd"/>
            </pattern>
        </defs>
        <path fill="url(#a)" opacity=".15" d="M0 0h181.606v336.182H0z"/>
        <path fill="none" d="M0 0h181.606v336.182H0z"/>
    </svg>
    <svg viewBox="0 0 1022.625 716.061" id="stethoscope"
        xmlns="http://www.w3.org/2000/svg">
        <defs>
            <pattern id="a" width="1023" height="716" patternTransform="translate(392.053 1203.674)" patternUnits="userSpaceOnUse">
                <path fill="none" d="M0 0h1023v716H0z"/>
                <circle cx="1023.092" cy="687.856" r="10.029" fill="none" stroke="#852d2f" stroke-miterlimit="10" stroke-width="2"/>
                <circle cx="1023.092" cy="687.856" r="6.096" fill="none" stroke="#852d2f" stroke-miterlimit="10" stroke-width="2"/>
                <circle cx="1026.926" cy="545.71" r="3.834" fill="none" stroke="#852d2f" stroke-miterlimit="10" stroke-width="1.177"/>
                <path d="M879.75 692.808c.469-1.244 1.736-11.524-4.791-14.752-4.086-2.021-35.087-4.678-54.079-8.125-14.688-2.092-21.677 8.894-23.993 15.965s-3.193 20.06 9.882 27.071c17.346 8.467 43.9 24.682 48.392 25.472 7.171 1.264 12.237-7.771 12.6-9.051" fill="none" stroke="#852d2f" stroke-miterlimit="10" stroke-width="2"/>
                <path d="M796.786 686.2c-25.207-8.265-42.965-10.172-49.92 11.038-10.028 30.587 25.607 37.675 50.2 45.738 8.322 2.728 33.1 12.215 28.367 26.663s-29.305-1.311-35.961 10c-2.627 4.463-1.139 10.293.635 14.677" fill="none" stroke="#852d2f" stroke-miterlimit="10" stroke-width="2"/>
                <path d="M876.733 694.325l.05-.372a1.616 1.616 0 011.817-1.387l2.395.321a1.616 1.616 0 011.387 1.817l-.05.372a1.615 1.615 0 01-1.816 1.387l-2.4-.321a1.617 1.617 0 01-1.383-1.817z" fill="#852d2f"/>
                <path d="M804.125 711.5a31.907 31.907 0 0113.521-41.829" fill="none" stroke="#852d2f" stroke-miterlimit="10" stroke-width="2"/>
                <circle cx="966.326" cy="701.029" r="6.514" fill="none" stroke="#852d2f" stroke-miterlimit="10" stroke-width="2"/>
                <path d="M544.184 721.334c-1.158.653-8.722 7.729-5.783 14.391 1.84 4.171 23.924 26.089 36.288 40.912 9.929 11.024 22.336 7.075 28.648 3.135s15.313-13.347 9.775-27.11c-7.88-17.621-17.862-47.091-20.8-50.577-4.693-5.568-14.374-1.884-15.469-1.131" fill="none" stroke="#852d2f" stroke-miterlimit="10" stroke-width="2"/>
                <path d="M603.611 779.6c14.043 22.5 26.447 35.356 45.384 23.539 27.308-17.04 4.508-45.329-9.192-67.285-4.636-7.43-17.569-30.6-4.67-38.65s21.647 19.8 34.006 15.387c4.877-1.74 7.474-7.168 8.924-11.669" fill="none" stroke="#852d2f" stroke-miterlimit="10" stroke-width="2"/>
                <path d="M576.154 704.206l.349-.137a1.615 1.615 0 00.913-2.095l-.883-2.25a1.618 1.618 0 00-2.1-.913l-.349.137a1.616 1.616 0 00-.913 2.1l.884 2.249a1.615 1.615 0 002.099.909z" fill="#852d2f"/>
                <circle cx="681.908" cy="692.035" r="10.029" fill="none" stroke="#852d2f" stroke-miterlimit="10" stroke-width="2"/>
                <circle cx="681.908" cy="692.035" r="6.096" fill="none" stroke="#852d2f" stroke-miterlimit="10" stroke-width="2"/>
                <path d="M538.75 573.474c.469-1.243 1.736-11.523-4.791-14.751-4.086-2.021-35.087-4.679-54.079-8.125-14.688-2.092-21.677 8.893-23.993 15.964s-3.193 20.061 9.882 27.072c17.346 8.467 43.9 24.681 48.392 25.472 7.171 1.264 12.237-7.771 12.6-9.051" fill="none" stroke="#852d2f" stroke-miterlimit="10" stroke-width="2"/>
                <path d="M455.786 566.87c-25.207-8.265-42.965-10.173-49.92 11.038-10.028 30.586 25.607 37.674 50.2 45.737 8.322 2.729 33.1 12.216 28.367 26.663s-29.305-1.311-35.961 10c-2.627 4.464-1.139 10.294.635 14.677" fill="none" stroke="#852d2f" stroke-miterlimit="10" stroke-width="2"/>
                <path d="M535.733 574.992l.05-.372a1.616 1.616 0 011.817-1.387l2.395.321a1.616 1.616 0 011.387 1.817l-.05.372a1.616 1.616 0 01-1.816 1.387l-2.4-.322a1.616 1.616 0 01-1.383-1.816zM525.2 607.117l-.18.329a1.618 1.618 0 00.643 2.194l2.121 1.159a1.616 1.616 0 002.193-.643l.18-.329a1.618 1.618 0 00-.643-2.194l-2.12-1.159a1.617 1.617 0 00-2.194.643z" fill="#852d2f"/>
                <path d="M463.125 592.168a31.907 31.907 0 0113.521-41.829" fill="none" stroke="#852d2f" stroke-miterlimit="10" stroke-width="2"/>
                <circle cx="451.854" cy="684.269" r="10.029" fill="none" stroke="#852d2f" stroke-miterlimit="10" stroke-width="2"/>
                <circle cx="451.854" cy="684.269" r="6.096" fill="none" stroke="#852d2f" stroke-miterlimit="10" stroke-width="2"/>
                <circle cx="625.326" cy="581.695" r="6.514" fill="none" stroke="#852d2f" stroke-miterlimit="10" stroke-width="2"/>
                <circle cx="344.926" cy="665.044" r="3.834" fill="none" stroke="#852d2f" stroke-miterlimit="10" stroke-width="1.177"/>
                <circle cx="354.578" cy="681.303" r="6.32" fill="none" stroke="#852d2f" stroke-miterlimit="10" stroke-width="1.94"/>
                <path d="M203.184 602c-1.158.653-8.722 7.729-5.783 14.392 1.84 4.17 23.924 26.089 36.288 40.912 9.929 11.023 22.336 7.075 28.648 3.134s15.313-13.346 9.775-27.11c-7.88-17.62-17.862-47.091-20.8-50.576-4.693-5.568-14.374-1.884-15.469-1.131" fill="none" stroke="#852d2f" stroke-miterlimit="10" stroke-width="2"/>
                <path d="M262.611 660.267c14.043 22.5 26.447 35.356 45.384 23.54 27.308-17.04 4.508-45.33-9.192-67.286-4.636-7.429-17.569-30.6-4.67-38.649s21.647 19.8 34.006 15.387c4.877-1.74 7.474-7.169 8.924-11.67" fill="none" stroke="#852d2f" stroke-miterlimit="10" stroke-width="2"/>
                <path d="M206.472 602.77l-.277.254a1.617 1.617 0 01-2.283-.1l-1.633-1.783a1.617 1.617 0 01.1-2.283l.277-.254a1.617 1.617 0 012.283.1l1.632 1.783a1.616 1.616 0 01-.099 2.283zM235.154 584.873l.349-.137a1.616 1.616 0 00.913-2.1l-.883-2.249a1.616 1.616 0 00-2.1-.913l-.349.137a1.615 1.615 0 00-.913 2.1l.884 2.25a1.616 1.616 0 002.099.912z" fill="#852d2f"/>
                <path d="M273.2 636.148a31.906 31.906 0 01-37.2 23.427" fill="none" stroke="#852d2f" stroke-miterlimit="10" stroke-width="2"/>
                <circle cx="340.908" cy="572.702" r="10.029" fill="none" stroke="#852d2f" stroke-miterlimit="10" stroke-width="2"/>
                <circle cx="340.908" cy="572.702" r="6.096" fill="none" stroke="#852d2f" stroke-miterlimit="10" stroke-width="2"/>
                <path d="M197.75 454.141c.469-1.244 1.736-11.524-4.791-14.752-4.086-2.02-35.087-4.678-54.079-8.125-14.688-2.092-21.677 8.894-23.993 15.965s-3.193 20.061 9.882 27.071c17.346 8.468 43.9 24.682 48.392 25.473 7.171 1.263 12.237-7.771 12.6-9.052" fill="none" stroke="#852d2f" stroke-miterlimit="10" stroke-width="2"/>
                <path d="M114.786 447.536c-25.207-8.264-42.965-10.172-49.92 11.039-10.028 30.586 25.607 37.674 50.2 45.737 8.322 2.728 33.1 12.215 28.367 26.663s-29.3-1.311-35.961 10c-2.627 4.463-1.139 10.294.635 14.677" fill="none" stroke="#852d2f" stroke-miterlimit="10" stroke-width="2"/>
                <path d="M194.733 455.658l.05-.372a1.617 1.617 0 011.817-1.386l2.4.322a1.615 1.615 0 011.387 1.816l-.05.372a1.615 1.615 0 01-1.816 1.387l-2.4-.321a1.617 1.617 0 01-1.388-1.818zM184.2 487.783l-.18.33a1.616 1.616 0 00.643 2.193l2.121 1.16a1.616 1.616 0 002.193-.643l.18-.329a1.617 1.617 0 00-.643-2.194l-2.12-1.159a1.617 1.617 0 00-2.194.642z" fill="#852d2f"/>
                <path d="M122.125 472.835a31.906 31.906 0 0113.521-41.829" fill="none" stroke="#852d2f" stroke-miterlimit="10" stroke-width="2"/>
                <circle cx="110.854" cy="564.936" r="10.029" fill="none" stroke="#852d2f" stroke-miterlimit="10" stroke-width="2"/>
                <circle cx="110.854" cy="564.936" r="6.096" fill="none" stroke="#852d2f" stroke-miterlimit="10" stroke-width="2"/>
                <path d="M120.722 760.484c1.292.313 11.65.308 14.052-6.567 1.5-4.3.333-35.4 1.42-54.668.272-14.833-11.489-20.42-18.791-21.85s-20.3-.7-25.652 13.133c-6.273 18.255-19.1 46.6-19.335 51.154-.373 7.273 9.215 11.19 10.53 11.388" fill="none" stroke="#852d2f" stroke-miterlimit="10" stroke-width="2"/>
                <path d="M117.086 677.337c5.106-26.031 4.817-43.89-17.087-48.186-31.586-6.195-34.243 30.041-39.224 55.437-1.686 8.594-8.057 34.354-22.977 31.427s-2.3-29.244-14.34-34.46c-4.752-2.059-10.355.134-14.488 2.433M92.881 687.728a31.905 31.905 0 0143.173 8.281" fill="none" stroke="#852d2f" stroke-miterlimit="10" stroke-width="2"/>
                <circle cx=".092" cy="687.856" r="10.029" fill="none" stroke="#852d2f" stroke-miterlimit="10" stroke-width="2"/>
                <circle cx=".092" cy="687.856" r="6.096" fill="none" stroke="#852d2f" stroke-miterlimit="10" stroke-width="2"/>
                <circle cx="284.326" cy="462.362" r="6.514" fill="none" stroke="#852d2f" stroke-miterlimit="10" stroke-width="2"/>
                <circle cx="193.103" cy="716.246" r="6.514" fill="none" stroke="#852d2f" stroke-miterlimit="10" stroke-width="2"/>
                <circle cx="3.926" cy="545.71" r="3.834" fill="none" stroke="#852d2f" stroke-miterlimit="10" stroke-width="1.177"/>
                <circle cx="13.578" cy="561.97" r="6.32" fill="none" stroke="#852d2f" stroke-miterlimit="10" stroke-width="1.94"/>
                <circle cx="1023.092" cy="329.856" r="10.029" fill="none" stroke="#852d2f" stroke-miterlimit="10" stroke-width="2"/>
                <circle cx="1023.092" cy="329.856" r="6.096" fill="none" stroke="#852d2f" stroke-miterlimit="10" stroke-width="2"/>
                <circle cx="1026.926" cy="187.71" r="3.834" fill="none" stroke="#852d2f" stroke-miterlimit="10" stroke-width="1.177"/>
                <path d="M885.184 482.667c-1.158.653-8.722 7.729-5.783 14.391 1.84 4.171 23.924 26.089 36.288 40.912 9.929 11.024 22.336 7.076 28.648 3.135s15.313-13.347 9.775-27.11c-7.88-17.62-17.862-47.091-20.8-50.577-4.693-5.568-14.374-1.883-15.469-1.13" fill="none" stroke="#852d2f" stroke-miterlimit="10" stroke-width="2"/>
                <path d="M944.611 540.934c14.043 22.5 26.447 35.356 45.384 23.539 27.308-17.039 4.508-45.329-9.192-67.285-4.636-7.43-17.569-30.6-4.67-38.649s21.647 19.8 34.006 15.387c4.877-1.741 7.474-7.169 8.924-11.67" fill="none" stroke="#852d2f" stroke-miterlimit="10" stroke-width="2"/>
                <path d="M888.472 483.437l-.277.253a1.616 1.616 0 01-2.283-.1l-1.633-1.783a1.617 1.617 0 01.1-2.283l.277-.254a1.615 1.615 0 012.283.1l1.632 1.782a1.617 1.617 0 01-.099 2.285zM917.154 465.54l.349-.138a1.615 1.615 0 00.913-2.095l-.883-2.249a1.618 1.618 0 00-2.1-.914l-.349.138a1.615 1.615 0 00-.913 2.1l.884 2.249a1.616 1.616 0 002.099.909z" fill="#852d2f"/>
                <path d="M955.2 516.815a31.906 31.906 0 01-37.2 23.427" fill="none" stroke="#852d2f" stroke-miterlimit="10" stroke-width="2"/>
                <circle cx="1022.908" cy="453.368" r="10.029" fill="none" stroke="#852d2f" stroke-miterlimit="10" stroke-width="2"/>
                <circle cx="1022.908" cy="453.368" r="6.096" fill="none" stroke="#852d2f" stroke-miterlimit="10" stroke-width="2"/>
                <path d="M879.75 334.808c.469-1.244 1.736-11.524-4.791-14.752-4.086-2.021-35.087-4.678-54.079-8.125-14.688-2.092-21.677 8.894-23.993 15.965s-3.193 20.06 9.882 27.071c17.346 8.467 43.9 24.682 48.392 25.472 7.171 1.264 12.237-7.771 12.6-9.051" fill="none" stroke="#852d2f" stroke-miterlimit="10" stroke-width="2"/>
                <path d="M796.786 328.2c-25.207-8.265-42.965-10.172-49.92 11.038-10.028 30.587 25.607 37.675 50.2 45.738 8.322 2.728 33.1 12.215 28.367 26.663s-29.305-1.311-35.961 10c-2.627 4.463-1.139 10.293.635 14.677" fill="none" stroke="#852d2f" stroke-miterlimit="10" stroke-width="2"/>
                <path d="M876.733 336.325l.05-.372a1.616 1.616 0 011.817-1.387l2.395.321a1.616 1.616 0 011.387 1.817l-.05.372a1.615 1.615 0 01-1.816 1.387l-2.4-.321a1.617 1.617 0 01-1.383-1.817zM866.2 368.45l-.18.33a1.616 1.616 0 00.643 2.193l2.121 1.159a1.615 1.615 0 002.193-.642l.18-.33a1.616 1.616 0 00-.643-2.193l-2.12-1.16a1.617 1.617 0 00-2.194.643z" fill="#852d2f"/>
                <path d="M804.125 353.5a31.907 31.907 0 0113.521-41.829" fill="none" stroke="#852d2f" stroke-miterlimit="10" stroke-width="2"/>
                <circle cx="792.854" cy="445.603" r="10.029" fill="none" stroke="#852d2f" stroke-miterlimit="10" stroke-width="2"/>
                <circle cx="792.854" cy="445.603" r="6.096" fill="none" stroke="#852d2f" stroke-miterlimit="10" stroke-width="2"/>
                <path d="M802.722 641.15c1.292.314 11.65.308 14.052-6.566 1.5-4.3.333-35.4 1.42-54.668.272-14.834-11.489-20.42-18.791-21.85s-20.3-.7-25.652 13.133c-6.273 18.254-19.1 46.6-19.335 51.154-.373 7.272 9.215 11.19 10.53 11.388" fill="none" stroke="#852d2f" stroke-miterlimit="10" stroke-width="2"/>
                <path d="M799.086 558c5.106-26.031 4.817-43.889-17.087-48.185-31.586-6.2-34.243 30.041-39.224 55.437-1.686 8.594-8.057 34.353-22.977 31.427s-2.3-29.244-14.34-34.46c-4.752-2.059-10.355.134-14.488 2.433" fill="none" stroke="#852d2f" stroke-miterlimit="10" stroke-width="2"/>
                <path d="M800.846 638.343h.375a1.616 1.616 0 011.6 1.632l-.021 2.425a1.616 1.616 0 01-1.632 1.6h-.376a1.616 1.616 0 01-1.6-1.633l.024-2.416a1.616 1.616 0 011.63-1.608zM767.67 631.836l-.349-.138a1.616 1.616 0 00-2.1.907l-.89 2.247a1.617 1.617 0 00.908 2.1l.349.138a1.616 1.616 0 002.1-.907l.89-2.247a1.617 1.617 0 00-.908-2.1z" fill="#852d2f"/>
                <path d="M774.881 568.394a31.908 31.908 0 0143.173 8.281" fill="none" stroke="#852d2f" stroke-miterlimit="10" stroke-width="2"/>
                <circle cx="682.092" cy="568.523" r="10.029" fill="none" stroke="#852d2f" stroke-miterlimit="10" stroke-width="2"/>
                <circle cx="682.092" cy="568.523" r="6.096" fill="none" stroke="#852d2f" stroke-miterlimit="10" stroke-width="2"/>
                <circle cx="966.326" cy="343.029" r="6.514" fill="none" stroke="#852d2f" stroke-miterlimit="10" stroke-width="2"/>
                <circle cx="875.103" cy="596.912" r="6.514" fill="none" stroke="#852d2f" stroke-miterlimit="10" stroke-width="2"/>
                <circle cx="895.765" cy="617.061" r="9.924" fill="none" stroke="#852d2f" stroke-miterlimit="10" stroke-width="2"/>
                <circle cx="685.926" cy="426.377" r="3.834" fill="none" stroke="#852d2f" stroke-miterlimit="10" stroke-width="1.177"/>
                <circle cx="695.578" cy="442.637" r="6.32" fill="none" stroke="#852d2f" stroke-miterlimit="10" stroke-width="1.94"/>
                <path d="M544.184 363.334c-1.158.653-8.722 7.729-5.783 14.391 1.84 4.171 23.924 26.089 36.288 40.912 9.929 11.024 22.336 7.075 28.648 3.135s15.313-13.347 9.775-27.11c-7.88-17.621-17.862-47.091-20.8-50.577-4.693-5.568-14.374-1.884-15.469-1.131" fill="none" stroke="#852d2f" stroke-miterlimit="10" stroke-width="2"/>
                <path d="M603.611 421.6c14.043 22.5 26.447 35.356 45.384 23.539 27.308-17.04 4.508-45.329-9.192-67.285-4.636-7.43-17.569-30.6-4.67-38.65s21.647 19.8 34.006 15.387c4.877-1.74 7.474-7.168 8.924-11.669" fill="none" stroke="#852d2f" stroke-miterlimit="10" stroke-width="2"/>
                <path d="M547.472 364.1l-.277.254a1.615 1.615 0 01-2.283-.1l-1.633-1.782a1.618 1.618 0 01.1-2.284l.277-.253a1.616 1.616 0 012.283.1l1.632 1.783a1.616 1.616 0 01-.099 2.282zM576.154 346.206l.349-.137a1.615 1.615 0 00.913-2.1l-.883-2.25a1.618 1.618 0 00-2.1-.913l-.349.137a1.616 1.616 0 00-.913 2.1l.884 2.249a1.615 1.615 0 002.099.914z" fill="#852d2f"/>
                <path d="M614.2 397.482a31.908 31.908 0 01-37.2 23.427" fill="none" stroke="#852d2f" stroke-miterlimit="10" stroke-width="2"/>
                <circle cx="681.908" cy="334.035" r="10.029" fill="none" stroke="#852d2f" stroke-miterlimit="10" stroke-width="2"/>
                <circle cx="681.908" cy="334.035" r="6.096" fill="none" stroke="#852d2f" stroke-miterlimit="10" stroke-width="2"/>
                <path d="M538.75 215.474c.469-1.243 1.736-11.523-4.791-14.751-4.086-2.021-35.087-4.679-54.079-8.125-14.688-2.092-21.677 8.893-23.993 15.964s-3.193 20.061 9.882 27.072c17.346 8.467 43.9 24.681 48.392 25.472 7.171 1.264 12.237-7.771 12.6-9.051" fill="none" stroke="#852d2f" stroke-miterlimit="10" stroke-width="2"/>
                <path d="M455.786 208.87c-25.207-8.265-42.965-10.173-49.92 11.038-10.028 30.586 25.607 37.674 50.2 45.737 8.322 2.729 33.1 12.216 28.367 26.663s-29.305-1.311-35.961 10c-2.627 4.464-1.139 10.294.635 14.677" fill="none" stroke="#852d2f" stroke-miterlimit="10" stroke-width="2"/>
                <path d="M535.733 216.992l.05-.372a1.616 1.616 0 011.817-1.387l2.395.321a1.616 1.616 0 011.387 1.817l-.05.372a1.616 1.616 0 01-1.816 1.387l-2.4-.322a1.616 1.616 0 01-1.383-1.816zM525.2 249.117l-.18.329a1.618 1.618 0 00.643 2.194l2.121 1.159a1.616 1.616 0 002.193-.643l.18-.329a1.618 1.618 0 00-.643-2.194l-2.12-1.159a1.617 1.617 0 00-2.194.643z" fill="#852d2f"/>
                <path d="M463.125 234.168a31.907 31.907 0 0113.521-41.829" fill="none" stroke="#852d2f" stroke-miterlimit="10" stroke-width="2"/>
                <circle cx="451.854" cy="326.269" r="10.029" fill="none" stroke="#852d2f" stroke-miterlimit="10" stroke-width="2"/>
                <circle cx="451.854" cy="326.269" r="6.096" fill="none" stroke="#852d2f" stroke-miterlimit="10" stroke-width="2"/>
                <path d="M461.722 521.817c1.292.313 11.65.308 14.052-6.567 1.5-4.3.333-35.4 1.42-54.667.272-14.834-11.489-20.421-18.791-21.851s-20.3-.7-25.652 13.134c-6.273 18.254-19.1 46.6-19.335 51.154-.373 7.272 9.215 11.19 10.53 11.388" fill="none" stroke="#852d2f" stroke-miterlimit="10" stroke-width="2"/>
                <path d="M458.086 438.67c5.106-26.031 4.817-43.889-17.087-48.186-31.586-6.195-34.243 30.042-39.224 55.438-1.686 8.593-8.057 34.353-22.977 31.427s-2.3-29.245-14.34-34.461c-4.752-2.058-10.355.135-14.488 2.433" fill="none" stroke="#852d2f" stroke-miterlimit="10" stroke-width="2"/>
                <path d="M459.846 519.01h.375a1.617 1.617 0 011.6 1.633l-.025 2.417a1.615 1.615 0 01-1.632 1.6h-.376a1.616 1.616 0 01-1.6-1.633l.024-2.417a1.616 1.616 0 011.634-1.6zM426.67 512.5l-.349-.139a1.617 1.617 0 00-2.1.908l-.89 2.247a1.617 1.617 0 00.908 2.1l.349.138a1.616 1.616 0 002.1-.908l.89-2.246a1.617 1.617 0 00-.908-2.1z" fill="#852d2f"/>
                <path d="M433.881 449.061a31.905 31.905 0 0143.173 8.281" fill="none" stroke="#852d2f" stroke-miterlimit="10" stroke-width="2"/>
                <circle cx="341.092" cy="449.189" r="10.029" fill="none" stroke="#852d2f" stroke-miterlimit="10" stroke-width="2"/>
                <circle cx="341.092" cy="449.189" r="6.096" fill="none" stroke="#852d2f" stroke-miterlimit="10" stroke-width="2"/>
                <circle cx="625.326" cy="223.695" r="6.514" fill="none" stroke="#852d2f" stroke-miterlimit="10" stroke-width="2"/>
                <circle cx="534.103" cy="477.579" r="6.514" fill="none" stroke="#852d2f" stroke-miterlimit="10" stroke-width="2"/>
                <circle cx="554.765" cy="497.728" r="9.924" fill="none" stroke="#852d2f" stroke-miterlimit="10" stroke-width="2"/>
                <circle cx="344.926" cy="307.044" r="3.834" fill="none" stroke="#852d2f" stroke-miterlimit="10" stroke-width="1.177"/>
                <circle cx="354.578" cy="323.303" r="6.32" fill="none" stroke="#852d2f" stroke-miterlimit="10" stroke-width="1.94"/>
                <path d="M203.184 244c-1.158.653-8.722 7.729-5.783 14.392 1.84 4.17 23.924 26.089 36.288 40.912 9.929 11.023 22.336 7.075 28.648 3.134s15.313-13.346 9.775-27.11c-7.88-17.62-17.862-47.091-20.8-50.576-4.693-5.568-14.374-1.884-15.469-1.131" fill="none" stroke="#852d2f" stroke-miterlimit="10" stroke-width="2"/>
                <path d="M262.611 302.267c14.043 22.5 26.447 35.356 45.384 23.54 27.308-17.04 4.508-45.33-9.192-67.286-4.636-7.429-17.569-30.6-4.67-38.649s21.647 19.8 34.006 15.387c4.877-1.74 7.474-7.169 8.924-11.67" fill="none" stroke="#852d2f" stroke-miterlimit="10" stroke-width="2"/>
                <path d="M206.472 244.77l-.277.254a1.617 1.617 0 01-2.283-.1l-1.633-1.783a1.617 1.617 0 01.1-2.283l.277-.254a1.617 1.617 0 012.283.1l1.632 1.783a1.616 1.616 0 01-.099 2.283zM235.154 226.873l.349-.137a1.616 1.616 0 00.913-2.1l-.883-2.249a1.616 1.616 0 00-2.1-.913l-.349.137a1.615 1.615 0 00-.913 2.095l.884 2.25a1.616 1.616 0 002.099.917z" fill="#852d2f"/>
                <path d="M273.2 278.148a31.906 31.906 0 01-37.2 23.427" fill="none" stroke="#852d2f" stroke-miterlimit="10" stroke-width="2"/>
                <circle cx="340.908" cy="214.702" r="10.029" fill="none" stroke="#852d2f" stroke-miterlimit="10" stroke-width="2"/>
                <circle cx="340.908" cy="214.702" r="6.096" fill="none" stroke="#852d2f" stroke-miterlimit="10" stroke-width="2"/>
                <path d="M197.75 96.141c.469-1.244 1.736-11.524-4.791-14.752-4.086-2.02-35.087-4.678-54.079-8.125-14.688-2.092-21.677 8.894-23.993 15.965s-3.193 20.061 9.882 27.071c17.346 8.468 43.9 24.682 48.392 25.473 7.171 1.263 12.237-7.771 12.6-9.052" fill="none" stroke="#852d2f" stroke-miterlimit="10" stroke-width="2"/>
                <path d="M114.786 89.536c-25.207-8.264-42.965-10.172-49.92 11.039-10.028 30.586 25.607 37.674 50.2 45.737 8.322 2.728 33.1 12.215 28.367 26.663s-29.3-1.311-35.961 10c-2.627 4.463-1.139 10.294.635 14.677" fill="none" stroke="#852d2f" stroke-miterlimit="10" stroke-width="2"/>
                <path d="M194.733 97.658l.05-.372A1.617 1.617 0 01196.6 95.9l2.4.322a1.615 1.615 0 011.387 1.816l-.05.372a1.615 1.615 0 01-1.816 1.387l-2.4-.321a1.617 1.617 0 01-1.388-1.818zM184.2 129.783l-.18.33a1.616 1.616 0 00.643 2.193l2.121 1.16a1.616 1.616 0 002.193-.643l.18-.329a1.617 1.617 0 00-.643-2.194l-2.12-1.159a1.617 1.617 0 00-2.194.642z" fill="#852d2f"/>
                <path d="M122.125 114.835a31.906 31.906 0 0113.521-41.829" fill="none" stroke="#852d2f" stroke-miterlimit="10" stroke-width="2"/>
                <circle cx="110.854" cy="206.936" r="10.029" fill="none" stroke="#852d2f" stroke-miterlimit="10" stroke-width="2"/>
                <circle cx="110.854" cy="206.936" r="6.096" fill="none" stroke="#852d2f" stroke-miterlimit="10" stroke-width="2"/>
                <path d="M120.722 402.484c1.292.313 11.65.308 14.052-6.567 1.5-4.3.333-35.4 1.42-54.668.272-14.833-11.489-20.42-18.791-21.85s-20.3-.7-25.652 13.133c-6.273 18.255-19.1 46.6-19.335 51.154-.373 7.273 9.215 11.19 10.53 11.388" fill="none" stroke="#852d2f" stroke-miterlimit="10" stroke-width="2"/>
                <path d="M117.086 319.337c5.106-26.031 4.817-43.89-17.087-48.186-31.586-6.195-34.243 30.041-39.224 55.437-1.686 8.594-8.057 34.354-22.977 31.427s-2.3-29.244-14.34-34.46c-4.752-2.059-10.355.134-14.488 2.433" fill="none" stroke="#852d2f" stroke-miterlimit="10" stroke-width="2"/>
                <path d="M118.846 399.676h.375a1.616 1.616 0 011.6 1.633l-.025 2.416a1.616 1.616 0 01-1.632 1.6h-.376a1.616 1.616 0 01-1.6-1.632l.024-2.417a1.616 1.616 0 011.634-1.6zM85.67 393.169l-.349-.138a1.617 1.617 0 00-2.1.907l-.89 2.247a1.617 1.617 0 00.908 2.1l.349.139a1.617 1.617 0 002.1-.908l.89-2.247a1.617 1.617 0 00-.908-2.1z" fill="#852d2f"/>
                <path d="M92.881 329.728a31.905 31.905 0 0143.173 8.281" fill="none" stroke="#852d2f" stroke-miterlimit="10" stroke-width="2"/>
                <circle cx=".092" cy="329.856" r="10.029" fill="none" stroke="#852d2f" stroke-miterlimit="10" stroke-width="2"/>
                <circle cx=".092" cy="329.856" r="6.096" fill="none" stroke="#852d2f" stroke-miterlimit="10" stroke-width="2"/>
                <circle cx="284.326" cy="104.362" r="6.514" fill="none" stroke="#852d2f" stroke-miterlimit="10" stroke-width="2"/>
                <circle cx="193.103" cy="358.246" r="6.514" fill="none" stroke="#852d2f" stroke-miterlimit="10" stroke-width="2"/>
                <circle cx="213.765" cy="378.395" r="9.924" fill="none" stroke="#852d2f" stroke-miterlimit="10" stroke-width="2"/>
                <circle cx="3.926" cy="187.71" r="3.834" fill="none" stroke="#852d2f" stroke-miterlimit="10" stroke-width="1.177"/>
                <circle cx="13.578" cy="203.97" r="6.32" fill="none" stroke="#852d2f" stroke-miterlimit="10" stroke-width="1.94"/>
                <circle cx="-.092" cy="453.368" r="10.029" fill="none" stroke="#852d2f" stroke-miterlimit="10" stroke-width="2"/>
                <circle cx="-.092" cy="453.368" r="6.096" fill="none" stroke="#852d2f" stroke-miterlimit="10" stroke-width="2"/>
                <path d="M885.184 124.667c-1.158.653-8.722 7.729-5.783 14.391 1.84 4.171 23.924 26.089 36.288 40.912 9.929 11.024 22.336 7.076 28.648 3.135s15.313-13.347 9.775-27.11c-7.88-17.62-17.862-47.091-20.8-50.577-4.693-5.568-14.374-1.883-15.469-1.13" fill="none" stroke="#852d2f" stroke-miterlimit="10" stroke-width="2"/>
                <path d="M944.611 182.934c14.043 22.5 26.447 35.356 45.384 23.539 27.308-17.039 4.508-45.329-9.192-67.285-4.636-7.43-17.569-30.6-4.67-38.649s21.647 19.8 34.006 15.387c4.877-1.741 7.474-7.169 8.924-11.67" fill="none" stroke="#852d2f" stroke-miterlimit="10" stroke-width="2"/>
                <path d="M888.472 125.437l-.277.253a1.616 1.616 0 01-2.283-.1l-1.633-1.783a1.617 1.617 0 01.1-2.283l.277-.254a1.615 1.615 0 012.283.1l1.632 1.782a1.617 1.617 0 01-.099 2.285zM917.154 107.54l.349-.138a1.615 1.615 0 00.913-2.095l-.883-2.249a1.618 1.618 0 00-2.1-.914l-.349.138a1.615 1.615 0 00-.913 2.095l.884 2.249a1.616 1.616 0 002.099.914z" fill="#852d2f"/>
                <path d="M955.2 158.815a31.906 31.906 0 01-37.2 23.427" fill="none" stroke="#852d2f" stroke-miterlimit="10" stroke-width="2"/>
                <circle cx="1022.908" cy="95.368" r="10.029" fill="none" stroke="#852d2f" stroke-miterlimit="10" stroke-width="2"/>
                <circle cx="1022.908" cy="95.368" r="6.096" fill="none" stroke="#852d2f" stroke-miterlimit="10" stroke-width="2"/>
                <path d="M879.75-23.192c.469-1.244 1.736-11.524-4.791-14.752-4.086-2.021-35.087-4.678-54.079-8.125-14.688-2.092-21.68 8.894-23.993 15.969s-3.193 20.06 9.882 27.071c17.346 8.467 43.9 24.682 48.392 25.472 7.171 1.264 12.237-7.771 12.6-9.051" fill="none" stroke="#852d2f" stroke-miterlimit="10" stroke-width="2"/>
                <path d="M796.786-29.8c-25.207-8.265-42.965-10.172-49.92 11.038-10.028 30.587 25.607 37.675 50.2 45.738 8.322 2.728 33.1 12.215 28.367 26.663s-29.305-1.311-35.961 10c-2.627 4.463-1.139 10.293.635 14.677" fill="none" stroke="#852d2f" stroke-miterlimit="10" stroke-width="2"/>
                <path d="M866.2 10.45l-.18.33a1.616 1.616 0 00.643 2.193l2.121 1.159a1.615 1.615 0 002.193-.642l.18-.33a1.616 1.616 0 00-.643-2.193l-2.12-1.16a1.617 1.617 0 00-2.194.643z" fill="#852d2f"/>
                <circle cx="792.854" cy="87.603" r="10.029" fill="none" stroke="#852d2f" stroke-miterlimit="10" stroke-width="2"/>
                <circle cx="792.854" cy="87.603" r="6.096" fill="none" stroke="#852d2f" stroke-miterlimit="10" stroke-width="2"/>
                <path d="M802.722 283.15c1.292.314 11.65.308 14.052-6.566 1.5-4.3.333-35.4 1.42-54.668.272-14.834-11.489-20.42-18.791-21.85s-20.3-.7-25.652 13.133c-6.273 18.254-19.1 46.6-19.335 51.154-.373 7.272 9.215 11.19 10.53 11.388" fill="none" stroke="#852d2f" stroke-miterlimit="10" stroke-width="2"/>
                <path d="M799.086 200c5.106-26.031 4.817-43.889-17.087-48.185-31.586-6.2-34.243 30.041-39.224 55.437-1.686 8.594-8.057 34.353-22.977 31.427s-2.3-29.244-14.34-34.46c-4.752-2.059-10.355.134-14.488 2.433" fill="none" stroke="#852d2f" stroke-miterlimit="10" stroke-width="2"/>
                <path d="M800.846 280.343h.375a1.616 1.616 0 011.6 1.632l-.021 2.425a1.616 1.616 0 01-1.632 1.6h-.376a1.616 1.616 0 01-1.6-1.633l.024-2.416a1.616 1.616 0 011.63-1.608zM767.67 273.836l-.349-.138a1.616 1.616 0 00-2.1.907l-.89 2.247a1.617 1.617 0 00.908 2.1l.349.138a1.616 1.616 0 002.1-.907l.89-2.247a1.617 1.617 0 00-.908-2.1z" fill="#852d2f"/>
                <path d="M774.881 210.394a31.908 31.908 0 0143.173 8.281" fill="none" stroke="#852d2f" stroke-miterlimit="10" stroke-width="2"/>
                <circle cx="682.092" cy="210.523" r="10.029" fill="none" stroke="#852d2f" stroke-miterlimit="10" stroke-width="2"/>
                <circle cx="682.092" cy="210.523" r="6.096" fill="none" stroke="#852d2f" stroke-miterlimit="10" stroke-width="2"/>
                <circle cx="875.103" cy="238.912" r="6.514" fill="none" stroke="#852d2f" stroke-miterlimit="10" stroke-width="2"/>
                <circle cx="895.765" cy="259.061" r="9.924" fill="none" stroke="#852d2f" stroke-miterlimit="10" stroke-width="2"/>
                <circle cx="685.926" cy="68.377" r="3.834" fill="none" stroke="#852d2f" stroke-miterlimit="10" stroke-width="1.177"/>
                <circle cx="695.578" cy="84.637" r="6.32" fill="none" stroke="#852d2f" stroke-miterlimit="10" stroke-width="1.94"/>
                <path d="M544.184 5.334c-1.158.653-8.722 7.729-5.783 14.391 1.84 4.171 23.924 26.089 36.288 40.912 9.929 11.024 22.336 7.075 28.648 3.135s15.313-13.347 9.775-27.11c-7.88-17.621-17.862-47.091-20.8-50.577-4.693-5.568-14.374-1.884-15.469-1.131" fill="none" stroke="#852d2f" stroke-miterlimit="10" stroke-width="2"/>
                <path d="M603.611 63.6C617.654 86.106 630.058 98.957 649 87.14c27.3-17.04 4.5-45.329-9.2-67.285-4.636-7.43-17.569-30.6-4.67-38.65S656.78 1 669.139-3.408c4.877-1.74 7.474-7.168 8.924-11.669" fill="none" stroke="#852d2f" stroke-miterlimit="10" stroke-width="2"/>
                <path d="M547.472 6.1l-.277.254a1.615 1.615 0 01-2.283-.1l-1.633-1.782a1.618 1.618 0 01.1-2.284l.277-.253a1.616 1.616 0 012.283.1l1.632 1.783a1.616 1.616 0 01-.099 2.282z" fill="#852d2f"/>
                <path d="M614.2 39.482A31.908 31.908 0 01577 62.909M461.722 163.817c1.292.313 11.65.308 14.052-6.567 1.5-4.3.333-35.4 1.42-54.667.272-14.834-11.489-20.421-18.791-21.851s-20.3-.7-25.652 13.134c-6.273 18.254-19.1 46.6-19.335 51.154-.373 7.272 9.215 11.19 10.53 11.388" fill="none" stroke="#852d2f" stroke-miterlimit="10" stroke-width="2"/>
                <path d="M458.086 80.67C463.192 54.639 462.9 36.781 441 32.484c-31.586-6.195-34.243 30.042-39.224 55.438-1.686 8.593-8.057 34.353-22.977 31.427s-2.3-29.245-14.34-34.461c-4.752-2.058-10.355.135-14.488 2.433" fill="none" stroke="#852d2f" stroke-miterlimit="10" stroke-width="2"/>
                <path d="M459.846 161.01h.375a1.617 1.617 0 011.6 1.633l-.025 2.417a1.615 1.615 0 01-1.632 1.6h-.376a1.616 1.616 0 01-1.6-1.633l.024-2.417a1.616 1.616 0 011.634-1.6zM426.67 154.5l-.349-.139a1.617 1.617 0 00-2.1.908l-.89 2.247a1.617 1.617 0 00.908 2.1l.349.138a1.616 1.616 0 002.1-.908l.89-2.246a1.617 1.617 0 00-.908-2.1z" fill="#852d2f"/>
                <path d="M433.881 91.061a31.905 31.905 0 0143.173 8.281" fill="none" stroke="#852d2f" stroke-miterlimit="10" stroke-width="2"/>
                <circle cx="341.092" cy="91.189" r="10.029" fill="none" stroke="#852d2f" stroke-miterlimit="10" stroke-width="2"/>
                <circle cx="341.092" cy="91.189" r="6.096" fill="none" stroke="#852d2f" stroke-miterlimit="10" stroke-width="2"/>
                <circle cx="534.103" cy="119.579" r="6.514" fill="none" stroke="#852d2f" stroke-miterlimit="10" stroke-width="2"/>
                <circle cx="554.765" cy="139.728" r="9.924" fill="none" stroke="#852d2f" stroke-miterlimit="10" stroke-width="2"/>
                <path d="M120.722 44.484c1.292.313 11.65.308 14.052-6.567 1.5-4.3.333-35.4 1.42-54.668.272-14.833-11.489-20.42-18.791-21.85s-20.3-.7-25.652 13.133c-6.273 18.255-19.1 46.6-19.335 51.154-.373 7.273 9.215 11.19 10.53 11.388" fill="none" stroke="#852d2f" stroke-miterlimit="10" stroke-width="2"/>
                <path d="M117.086-38.663c5.106-26.031 4.814-43.89-17.086-48.186-31.587-6.195-34.244 30.041-39.225 55.437C59.089-22.818 52.718 2.942 37.8.015s-2.3-29.244-14.34-34.46c-4.754-2.055-10.36.134-14.49 2.433" fill="none" stroke="#852d2f" stroke-miterlimit="10" stroke-width="2"/>
                <path d="M118.846 41.676h.375a1.616 1.616 0 011.6 1.633l-.025 2.416a1.616 1.616 0 01-1.632 1.6h-.376a1.616 1.616 0 01-1.6-1.632l.024-2.417a1.616 1.616 0 011.634-1.6zM85.67 35.169l-.349-.138a1.617 1.617 0 00-2.1.907l-.89 2.247a1.617 1.617 0 00.908 2.1l.349.139a1.617 1.617 0 002.1-.908l.89-2.247a1.617 1.617 0 00-.908-2.1z" fill="#852d2f"/>
                <circle cx="193.103" cy=".246" r="6.514" fill="none" stroke="#852d2f" stroke-miterlimit="10" stroke-width="2"/>
                <circle cx="213.765" cy="20.395" r="9.924" fill="none" stroke="#852d2f" stroke-miterlimit="10" stroke-width="2"/>
                <circle cx="-.092" cy="95.368" r="10.029" fill="none" stroke="#852d2f" stroke-miterlimit="10" stroke-width="2"/>
                <circle cx="-.092" cy="95.368" r="6.096" fill="none" stroke="#852d2f" stroke-miterlimit="10" stroke-width="2"/>
            </pattern>
        </defs>
        <path fill="url(#a)" opacity=".15" d="M0 0h1022.625v716.061H0z"/>
        <path fill="none" d="M0 0h1022.625v716.061H0z"/>
    </svg>
    <svg viewBox="0 0 198.593 177.923" id="syringe"
        xmlns="http://www.w3.org/2000/svg">
        <defs>
            <pattern id="a" width="198.759" height="177.948" patternTransform="translate(138.257 -897.169)" patternUnits="userSpaceOnUse">
                <path fill="none" d="M0 0h198.759v177.948H0z"/>
                <path fill="none" stroke="#852d2f" stroke-linecap="round" stroke-linejoin="round" stroke-width="2" d="M107.663 90.629l31.641 31.641M146.767 123.828l-4.511-4.51-5.225 5.225 4.511 4.511M149.122 128.413l-5.205 5.205"/>
                <path d="M151.375 121.824l-9.029 9.029 36.9 36.9 9.029-9.028-36.9-36.905m0-2.828l39.732 39.733-11.857 11.861-39.733-39.733L151.375 119z" fill="#852d2f"/>
                <path fill="none" stroke="#852d2f" stroke-linecap="round" stroke-linejoin="round" stroke-width="2" d="M165.029 144.319l-5.206 5.205M159.028 142.367l-3.182 3.181M155.051 138.39l-3.181 3.181M151.075 134.414l-3.182 3.181M180.935 160.225l-5.206 5.206M174.934 158.273l-3.181 3.181M170.957 154.296l-3.181 3.182M166.981 150.32l-3.181 3.181M185.323 164.513l6.652 6.651M186.191 176.948l11.568-11.568M1 87.319l31.64-31.64M40.103 54.12l-4.51 4.511-5.226-5.225 4.511-4.511M42.705 49.782l-5.206-5.205"/>
                <path d="M72.587 10.191l-36.9 36.9 9.029 9.029 36.905-36.9-9.029-9.029m0-2.828L84.444 19.22 44.711 58.952 32.854 47.1 72.587 7.363z" fill="#852d2f"/>
                <path fill="none" stroke="#852d2f" stroke-linecap="round" stroke-linejoin="round" stroke-width="2" d="M58.611 33.876l-5.205-5.206M52.611 35.828l-3.182-3.181M48.634 39.805l-3.181-3.182M44.657 43.781L41.476 40.6M74.518 17.97l-5.206-5.206M68.517 19.922l-3.181-3.181M64.54 23.898l-3.181-3.181M60.564 27.875l-3.182-3.181M78.66 13.436l6.652-6.652M79.527 1l11.569 11.568"/>
            </pattern>
        </defs>
        <path fill="url(#a)" opacity=".15" d="M0 0h198.593v177.923H0z"/>
        <path fill="none" d="M0 0h198.593v177.923H0z"/>
    </svg>
</svg>