<svg xmlns="http://www.w3.org/2000/svg"
    xmlns:xlink="http://www.w3.org/1999/xlink" viewBox="0 0 181.606 336.182">
    <defs>
        <pattern id="b" width="180" height="113" patternUnits="userSpaceOnUse" viewBox="0 0 180 113">
            <rect width="180" height="113" style="fill:none"/>
            <path d="M142.673,66.617a8.413,8.413,0,0,0-5.987,2.48l-23.13,23.13A8.468,8.468,0,0,0,125.531,104.2l23.13-23.13a8.468,8.468,0,0,0-5.988-14.455m0-2a10.435,10.435,0,0,1,7.4,3.066h0a10.467,10.467,0,0,1,0,14.8l-23.13,23.131a10.468,10.468,0,0,1-14.8-14.8l23.131-23.13a10.435,10.435,0,0,1,7.4-3.066Z" style="fill:#852d2f"/>
            <path d="M149.959,67.8h0a10.467,10.467,0,0,0-14.8,0L123.938,79.017l14.8,14.8L149.959,82.6A10.467,10.467,0,0,0,149.959,67.8Z" style="fill:#852d2f;fill-rule:evenodd"/>
            <path d="M37.327,6.318a8.468,8.468,0,0,0-5.988,14.455L54.469,43.9A8.468,8.468,0,1,0,66.444,31.928L43.314,8.8a8.409,8.409,0,0,0-5.987-2.48m0-2a10.436,10.436,0,0,1,7.4,3.065L67.859,30.514a10.469,10.469,0,0,1,0,14.8h0a10.468,10.468,0,0,1-14.8,0l-23.13-23.13a10.468,10.468,0,0,1,0-14.8h0a10.438,10.438,0,0,1,7.4-3.065Z" style="fill:#852d2f"/>
            <path d="M30.041,7.5h0a10.467,10.467,0,0,0,0,14.8L41.259,33.521l14.8-14.8L44.844,7.5A10.467,10.467,0,0,0,30.041,7.5Z" style="fill:#852d2f;fill-rule:evenodd"/>
        </pattern>
    </defs>
    <rect width="181.606" height="336.182" style="fill:url(#b);opacity:0.15"/>
    <rect width="181.606" height="336.182" style="fill:none"/>
</svg>