<svg width="30" height="30" viewBox="0 0 30 30" fill="none" xmlns="http://www.w3.org/2000/svg">
<path fill-rule="evenodd" clip-rule="evenodd" d="M25.9988 6.76406C25.9988 5.79096 25.277 5 24.3891 5H5.61094C4.72178 5 4 5.79096 4 6.76406C4 7.73845 4.72178 8.52941 5.61094 8.52941H24.3891C25.277 8.52941 25.9988 7.73845 25.9988 6.76406ZM24.3891 21.4706H5.61094C4.72178 21.4706 4 22.2613 4 23.2353C4 24.208 4.72178 25 5.61094 25H24.3891C25.2782 25 26 24.208 26 23.2353C26 22.2613 25.2782 21.4706 24.3891 21.4706ZM5.61094 13.2353H24.3891C25.2782 13.2353 26 14.026 26 15C26 15.9727 25.2782 16.7647 24.3891 16.7647H5.61094C4.72178 16.7647 4 15.9727 4 15C4 14.026 4.72178 13.2353 5.61094 13.2353Z" fill="#5B423B"/>
</svg>
