<svg width="30" height="30" viewBox="0 0 30 30" fill="none" xmlns="http://www.w3.org/2000/svg">
<path fill-rule="evenodd" clip-rule="evenodd" d="M20.5136 3.46077L20.5148 4.3978C23.9581 4.66767 26.2327 7.01399 26.2364 10.6122L26.25 21.1444C26.2549 25.0674 23.7903 27.4812 19.8398 27.4875L10.1899 27.5C6.26399 27.505 3.76852 25.0337 3.76358 21.0994L3.75001 10.6909C3.74507 7.06896 5.93941 4.72889 9.38271 4.41279L9.38148 3.47576C9.38025 2.92604 9.78752 2.5125 10.3305 2.5125C10.8736 2.51125 11.2809 2.92354 11.2821 3.47327L11.2833 4.34783L18.6142 4.33783L18.613 3.46327C18.6118 2.91355 19.019 2.50125 19.5621 2.5C20.0928 2.49875 20.5124 2.91105 20.5136 3.46077ZM5.65185 11.077L24.337 11.0521V10.6148C24.284 7.92863 22.9363 6.51933 20.5173 6.30944L20.5185 7.27145C20.5185 7.80868 20.1002 8.23472 19.5695 8.23472C19.0264 8.23597 18.6179 7.81118 18.6179 7.27395L18.6167 6.26196L11.2858 6.27196L11.287 7.2827C11.287 7.82118 10.881 8.24597 10.338 8.24597C9.79493 8.24722 9.38642 7.82368 9.38642 7.2852L9.38519 6.32318C6.97858 6.56431 5.64692 7.9786 5.65062 10.6885L5.65185 11.077ZM19.0499 16.7554V16.7691C19.0622 17.3438 19.5312 17.7799 20.1001 17.7674C20.6555 17.7536 21.0986 17.2776 21.0862 16.7029C21.0603 16.1532 20.6148 15.7046 20.0606 15.7059C19.4929 15.7184 19.0486 16.1807 19.0499 16.7554ZM20.0693 22.3651C19.5016 22.3526 19.0437 21.8791 19.0425 21.3044C19.0302 20.7296 19.4856 20.2536 20.0533 20.2399H20.0656C20.6457 20.2399 21.1159 20.7134 21.1159 21.3006C21.1171 21.8878 20.6482 22.3638 20.0693 22.3651ZM13.9652 16.7755C13.9899 17.3503 14.4601 17.7988 15.0278 17.7738C15.5832 17.7476 16.0262 17.2728 16.0016 16.6981C15.988 16.1359 15.5313 15.6986 14.976 15.6998C14.4083 15.7248 13.964 16.2008 13.9652 16.7755ZM15.0327 22.3088C14.465 22.3338 13.996 21.8852 13.9701 21.3105C13.9701 20.7358 14.4132 20.2611 14.9809 20.2348C15.5363 20.2336 15.9941 20.6709 16.0065 21.2318C16.0324 21.8078 15.5881 22.2825 15.0327 22.3088ZM8.88045 16.8193C8.90514 17.394 9.37535 17.8438 9.94306 17.8176C10.4984 17.7926 10.9415 17.3166 10.9156 16.7419C10.9032 16.1796 10.4466 15.7424 9.89 15.7436C9.32228 15.7686 8.87922 16.2446 8.88045 16.8193ZM9.94798 22.3152C9.38026 22.3414 8.91128 21.8916 8.88537 21.3169C8.88413 20.7422 9.32843 20.2662 9.89614 20.2412C10.4515 20.24 10.9094 20.6772 10.9217 21.2395C10.9476 21.8142 10.5046 22.2902 9.94798 22.3152Z" fill="#5B423B"/>
</svg>
