<svg width="33" height="23" viewBox="0 0 33 23" fill="none"
    xmlns="http://www.w3.org/2000/svg">
    <path d="M30.8974 22H2.57505C1.70556 22 1 21.3054 1 20.4494V2.55062C1 1.69462 1.70556 1 2.57505 1H30.8974C31.7669 1 32.4724 1.69462 32.4724 2.55062V20.4494C32.4796 21.3054 31.774 22 30.8974 22Z" stroke="#852D2E" stroke-miterlimit="10"/>
    <path d="M16.1876 5.39981H3.67992C3.37346 5.39981 3.12402 5.15424 3.12402 4.85254V3.46329C3.12402 3.16159 3.37346 2.91602 3.67992 2.91602H16.1876C16.4941 2.91602 16.7436 3.16159 16.7436 3.46329V4.85254C16.7364 5.15424 16.487 5.39981 16.1876 5.39981Z" fill="#852D2E"/>
    <path d="M24.6043 19.5236C25.7772 19.5236 26.7281 18.5874 26.7281 17.4327C26.7281 16.2779 25.7772 15.3418 24.6043 15.3418C23.4313 15.3418 22.4805 16.2779 22.4805 17.4327C22.4805 18.5874 23.4313 19.5236 24.6043 19.5236Z" fill="#852D2E"/>
    <path d="M27.4058 15.3418C27.1421 15.3418 26.8856 15.3979 26.6504 15.4821C27.1493 15.9873 27.4629 16.6749 27.4629 17.4327C27.4629 18.1904 27.1493 18.878 26.6504 19.3832C26.8856 19.4744 27.135 19.5236 27.4058 19.5236C28.5818 19.5236 29.5297 18.5904 29.5297 17.4327C29.5297 16.282 28.5747 15.3418 27.4058 15.3418Z" fill="#852D2E"/>
</svg>
