<svg width="12" height="12" viewBox="0 0 12 12" fill="none"
    xmlns="http://www.w3.org/2000/svg">
    <path d="M6 0C2.6916 0 0 2.6916 0 6C0 9.3084 2.6916 12 6 12C9.3084 12 12 9.3084 12 6C12 2.6916 9.3084 0 6 0Z" fill="white"/>
    <path opacity="0.5" d="M9.12686 5.81472H6.43044V2.57264C6.43044 2.29982 6.20924 2.07861 5.93641 2.07861C5.66358 2.07861 5.44238 2.29982 5.44238 2.57264V6.30875C5.44238 6.58158 5.66358 6.80278 5.93641 6.80278H9.12686C9.39969 6.80278 9.62089 6.58158 9.62089 6.30875C9.62089 6.03592 9.39969 5.81472 9.12686 5.81472Z" fill="#5B423B"/>
</svg>
