<svg width="82" height="72" fill="none" xmlns="http://www.w3.org/2000/svg"><path d="M68.303 1H1v63.53h67.303V1z" stroke="#852D2E" stroke-width="1.5" stroke-miterlimit="10" stroke-linecap="round" stroke-linejoin="round"/><path d="M7.606 16.168l3.702 6.203L17.563 7.13l4.755 12.6 4.685-7.367 3.35 3.805h7.005l4.615 4.773 6.02-7.754 5.365 4.87 1.897-1.89h4.498M7.606 33.88l3.702 6.202 6.255-15.24 4.755 12.6 4.685-7.367 3.35 3.805h7.005l4.615 4.797 6.02-7.778 5.365 4.87 1.897-1.89h4.498M7.606 51.617l3.702 6.178 6.255-15.216 4.755 12.6 4.685-7.39 3.35 3.828h7.005l4.615 4.773 6.02-7.753 5.365 4.846 1.897-1.866h4.498" stroke="#852D2E" stroke-width="1.5" stroke-miterlimit="10" stroke-linecap="round" stroke-linejoin="round"/><path d="M73.48 44.613c-4.146 0-7.52 6.93-7.52 6.93-.257-.267-3.373-6.93-7.52-6.93-4.146 0-7.52 3.102-7.52 6.93 0 6.93 4.569 12.503 15.04 19.457C76.338 64.433 81 58.497 81 51.543c0-3.828-3.373-6.93-7.52-6.93z" fill="#F4F4F4" stroke="#852D2E" stroke-width="1.5" stroke-miterlimit="10" stroke-linejoin="round"/></svg>