<svg width="35" height="36" fill="none" xmlns="http://www.w3.org/2000/svg"><path d="M11.875 34.1a4.945 4.945 0 01-2.046-3.214 4.946 4.946 0 01.823-3.72l6.577-9.393-9.393 6.577a4.985 4.985 0 01-6.934-1.223 4.94 4.94 0 01-.825-3.72 4.946 4.946 0 012.048-3.214l4.655-3.26a2.812 2.812 0 013.912.69l1.39 1.986a.525.525 0 01-.129.731l-1.72 1.204a.525.525 0 01-.73-.128l-1.196-1.707-4.376 3.064a1.825 1.825 0 00-.45 2.547 1.831 1.831 0 002.549.45l14.258-9.984c.706-.495 1.867-1.035 2.7-1.258l6.424-1.715c.144-.038.454-.329.502-.47l1.667-4.922-4.922 1.667c-.141.048-.431.358-.47.502l-.783 2.934a.525.525 0 11-1.015-.271l.783-2.933c.129-.482.676-1.067 1.149-1.227l5.812-1.968.503-.503a.524.524 0 00-.69-.541l-5.962 2.018c-.805.272-1.607 1.129-1.826 1.95l-1.092 4.088a.525.525 0 01-1.014-.27l1.091-4.089c.311-1.163 1.364-2.288 2.504-2.674L31.611.086a1.571 1.571 0 012.059 1.245 1.572 1.572 0 011.246 2.06l-2.018 5.962c-.386 1.14-1.51 2.193-2.674 2.504L23.88 13.55a8.603 8.603 0 01-.664 1.164l-9.984 14.258c-.28.4-.386.885-.302 1.367.085.482.352.901.752 1.181s.885.388 1.366.303c.481-.085.9-.352 1.181-.752l3.064-4.376-1.707-1.195a.525.525 0 01-.129-.731l1.205-1.72a.525.525 0 01.73-.13l1.987 1.391a2.812 2.812 0 01.69 3.913l-3.26 4.654a4.946 4.946 0 01-3.214 2.048 4.947 4.947 0 01-3.72-.825zm18.079-23.258c.82-.22 1.677-1.021 1.95-1.826l2.017-5.96a.53.53 0 00-.125-.54.524.524 0 00-.415-.153l-.504.504L30.91 8.68c-.16.473-.744 1.02-1.226 1.149l-6.424 1.715c-.707.188-1.77.683-2.369 1.103L6.632 22.63A2.882 2.882 0 012.1 20.276a2.86 2.86 0 011.228-2.363l4.655-3.26a.71.71 0 01.988.175l1.09 1.555.86-.602-1.09-1.556a1.761 1.761 0 00-2.45-.432l-4.655 3.26a3.903 3.903 0 00-1.616 2.536 3.896 3.896 0 00.65 2.936 3.934 3.934 0 005.473.965l14.258-9.984c.507-.355 1.44-.79 2.038-.949l6.424-1.715zM15.413 33.891a3.903 3.903 0 002.536-1.616l3.26-4.655a1.76 1.76 0 00-.432-2.45l-1.556-1.089-.602.86 1.555 1.09a.71.71 0 01.175.987l-3.26 4.655a2.86 2.86 0 01-1.858 1.184 2.86 2.86 0 01-2.152-.477 2.86 2.86 0 01-1.183-1.859 2.86 2.86 0 01.476-2.15l9.876-14.105a3.256 3.256 0 00-.153.1l-2.351 1.646-8.232 11.756c-.6.858-.831 1.9-.649 2.935a3.902 3.902 0 001.614 2.537c.86.602 1.902.833 2.936.65z" fill="#852D2E"/></svg>