<svg width="30" height="30" viewBox="0 0 30 30" fill="none" xmlns="http://www.w3.org/2000/svg">
<path fill-rule="evenodd" clip-rule="evenodd" d="M17.9448 2.50991C17.666 2.46994 17.3859 2.55238 17.163 2.72976C16.934 2.90964 16.7908 3.16946 16.7597 3.46051C16.6937 4.04886 17.1182 4.58099 17.7058 4.64719C21.7579 5.09938 24.9074 8.25597 25.363 12.3207C25.424 12.8653 25.8809 13.2763 26.4262 13.2763C26.4672 13.2763 26.5071 13.2738 26.5482 13.2688C26.8332 13.2375 27.0872 13.0964 27.2664 12.8715C27.4445 12.6467 27.5254 12.3669 27.493 12.0808C26.9254 7.00932 23.0003 3.07328 17.9448 2.50991ZM18.0226 6.86245C17.4276 6.75252 16.8811 7.13226 16.7678 7.71311C16.6545 8.29396 17.0354 8.86108 17.6143 8.97475C19.3571 9.31451 20.7029 10.6636 21.044 12.4124V12.4136C21.1411 12.917 21.5842 13.283 22.0946 13.283C22.1631 13.283 22.2316 13.2768 22.3013 13.2643C22.8801 13.1481 23.2611 12.5823 23.1478 12.0002C22.6386 9.38821 20.6282 7.37085 18.0226 6.86245ZM20.0001 18.8633C20.5644 18.5379 21.2018 18.1704 22.0058 18.3415C22.7341 18.4951 25.2164 20.51 25.8961 21.2082C26.3418 21.6654 26.5895 22.1376 26.6281 22.6098C26.6953 24.4622 24.1782 26.577 23.72 26.8406C23.1113 27.2791 22.403 27.5002 21.6075 27.5002C20.7946 27.5002 19.8883 27.2691 18.8999 26.8081C13.5369 24.5697 5.34441 16.5389 3.17833 11.2176C2.27952 9.23646 2.2733 7.60258 3.16339 6.37467C3.51818 5.79882 5.5411 3.39172 7.3524 3.46792C7.83417 3.50914 8.30224 3.75647 8.7616 4.20616C9.45624 4.88694 11.4207 7.37648 11.5725 8.10723C11.7406 8.91917 11.3721 9.56498 11.0447 10.1321C10.9749 10.254 10.8808 10.3987 10.7777 10.5572C10.3865 11.1587 9.8658 11.9594 10.05 12.4705C11.3709 15.7133 14.4221 18.5426 17.6662 19.8717C18.1679 20.054 18.9681 19.5296 19.5677 19.1366C19.7239 19.0342 19.8665 18.9408 19.9867 18.8711L20.0001 18.8633Z" fill="#5B423B"/>
</svg>
