<svg width="34" height="41" fill="none" xmlns="http://www.w3.org/2000/svg"><path d="M31.566 36.938V23.853A16.099 16.099 0 10.9 17.006c0 2.363.523 4.696 1.533 6.832v13.101a.766.766 0 00.767.767h5.393l-.684 1.14a.767.767 0 00.657 1.16h16.867a.767.767 0 00.657-1.16l-.683-1.14H30.8a.767.767 0 00.766-.767zM2.433 17.005a14.567 14.567 0 1118.4 14.044v-4.844h6.133a.767.767 0 00.767-.767v-3.833a.767.767 0 00-.767-.767h-.792a9.803 9.803 0 00.792-3.833 9.967 9.967 0 10-19.933 0 9.872 9.872 0 00.778 3.833h-.778a.767.767 0 00-.766.767v3.833a.766.766 0 00.766.767h6.133v4.83a14.573 14.573 0 01-10.733-14.03zM7.8 24.672v-2.3h18.4v2.3H7.8zm11.5 1.533v8.433h-4.6v-8.433h4.6zm-10.734-9.2a8.433 8.433 0 1116.867 0 8.346 8.346 0 01-.935 3.833H9.514a8.336 8.336 0 01-.947-3.833zm-4.6 19.167v-9.758a16.151 16.151 0 009.2 6.21v2.014h-2.3a.766.766 0 00-.656.373l-.697 1.16H3.967zm5.955 2.3l1.38-2.3H22.7l1.38 2.3H9.921zm20.112-2.3h-5.546l-.697-1.161a.767.767 0 00-.657-.373h-2.3v-2.02a16.139 16.139 0 009.2-6.19v9.744z" fill="currentColor"/><path d="M3.967 16.238H5.5v1.534H3.967v-1.534zM28.5 16.238h1.533v1.534H28.5v-1.534zM13.166 3.973H14.7v1.533h-1.534V3.973zM16.233 3.973h1.534v1.533h-1.534V3.973zM19.3 3.973h1.533v1.533H19.3V3.973z" fill="currentColor"/></svg>