<svg xmlns="http://www.w3.org/2000/svg" xmlns:xlink="http://www.w3.org/1999/xlink"><symbol fill="none" viewBox="0 0 81 85" id="branch--img--mrt" xmlns="http://www.w3.org/2000/svg"><path d="M80.012 40.403C80.012 18.626 62.33.984 40.5.984S.986 18.626.986 40.404c0 9.65 3.498 18.485 9.251 25.322V81.54h62.809V62.744a39.087 39.087 0 006.966-22.34z" fill="#F4F4F4" stroke="#000" stroke-width="1.5" stroke-miterlimit="10"/><path d="M40.5 74.28c18.598 0 33.675-15.041 33.675-33.595S59.098 7.09 40.5 7.09 6.825 22.13 6.825 40.685c0 18.554 15.077 33.594 33.675 33.594z" fill="#F4F4F4" stroke="#000" stroke-width="1.5" stroke-miterlimit="10"/><path d="M40.5 59.057c11.013 0 19.94-8.906 19.94-19.892 0-10.986-8.927-19.892-19.94-19.892-11.012 0-19.94 8.906-19.94 19.892 0 10.986 8.928 19.892 19.94 19.892z" fill="#F4F4F4" stroke="#000" stroke-width="1.5" stroke-miterlimit="10"/><path d="M47.325 77.938V57.229H33.449v20.709h-4.766v6.077h23.634v-6.077h-4.992z" fill="#F4F4F4" stroke="#000" stroke-width="1.5" stroke-miterlimit="10" stroke-linejoin="round"/><path d="M60.524 51.209H20.476v10.242h40.048V51.209z" fill="#F4F4F4" stroke="#000" stroke-width="1.5" stroke-miterlimit="10" stroke-linejoin="round"/></symbol><symbol fill="none" viewBox="0 0 82 88" id="branch--img--tomo" xmlns="http://www.w3.org/2000/svg"><path d="M80.885 39.508c-.976-21.213-18.428-38.149-39.9-38.149-21.47 0-38.923 16.936-39.899 38.149H1V83.54h80V39.508h-.115z" fill="#fff" stroke="currentColor" stroke-width="1.5" stroke-miterlimit="10"/><path d="M40.986 76.737c18.929 0 34.274-15.344 34.274-34.273 0-18.929-15.345-34.274-34.274-34.274-18.928 0-34.273 15.345-34.273 34.274 0 18.928 15.345 34.273 34.273 34.273z" fill="#fff" stroke="currentColor" stroke-width="1.5" stroke-miterlimit="10"/><path d="M40.985 59.315c9.67 0 17.51-7.84 17.51-17.51 0-9.67-7.84-17.51-17.51-17.51-9.67 0-17.51 7.84-17.51 17.51 0 9.67 7.84 17.51 17.51 17.51z" fill="#fff" stroke="currentColor" stroke-width="1.5" stroke-miterlimit="10"/><path d="M45.062 80.47V59.344h-8.381V80.47h-7.722v6.172h24.055V80.47h-7.952z" fill="#fff" stroke="currentColor" stroke-width="1.5" stroke-miterlimit="10" stroke-linejoin="round"/><path d="M61.366 53.17h-40.76v10.45h40.76V53.17z" fill="#fff" stroke="currentColor" stroke-width="1.5" stroke-miterlimit="10" stroke-linejoin="round"/></symbol></svg>