<svg width="82" height="72" viewBox="0 0 82 72" fill="none" xmlns="http://www.w3.org/2000/svg">
<path d="M68.3034 1H1V64.5307H68.3034V1Z" stroke="black" stroke-width="1.5" stroke-miterlimit="10" stroke-linecap="round" stroke-linejoin="round"/>
<path d="M7.60645 16.1676L11.3078 22.3705L17.5626 7.12988L22.3181 19.7294L27.0033 12.3635L30.3533 16.1676H37.3577L41.9727 20.9409L47.9932 13.1873L53.3578 18.0576L55.2553 16.1676H59.7531" stroke="black" stroke-width="1.5" stroke-miterlimit="10" stroke-linecap="round" stroke-linejoin="round"/>
<path d="M7.60645 33.8795L11.3078 40.0824L17.5626 24.8418L22.3181 37.4413L27.0033 30.0754L30.3533 33.8795H37.3577L41.9727 38.677L47.9932 30.8993L53.3578 35.7695L55.2553 33.8795H59.7531" stroke="black" stroke-width="1.5" stroke-miterlimit="10" stroke-linecap="round" stroke-linejoin="round"/>
<path d="M7.60645 51.6168L11.3078 57.7955L17.5626 42.5791L22.3181 55.1786L27.0033 47.7885L30.3533 51.6168H37.3577L41.9727 56.3901L47.9932 48.6366L53.3578 53.4825L55.2553 51.6168H59.7531" stroke="black" stroke-width="1.5" stroke-miterlimit="10" stroke-linecap="round" stroke-linejoin="round"/>
<path d="M73.4803 44.6133C69.3339 44.6133 65.9605 51.543 65.9605 51.543C65.7028 51.2765 62.5871 44.6133 58.4407 44.6133C54.2943 44.6133 50.9209 47.7147 50.9209 51.543C50.9209 58.4728 55.489 64.0456 65.9605 70.9996C76.3383 64.4333 81.0001 58.497 81.0001 51.543C81.0001 47.7147 77.6267 44.6133 73.4803 44.6133Z" fill="#F4F4F4" stroke="black" stroke-width="1.5" stroke-miterlimit="10" stroke-linejoin="round"/>
</svg>
