<svg width="35" height="36" viewBox="0 0 35 36" fill="none" xmlns="http://www.w3.org/2000/svg">
<path d="M11.8749 34.1C10.7871 33.3383 10.0606 32.1968 9.82943 30.8857C9.5983 29.5747 9.89047 28.2536 10.6522 27.1657L17.2289 17.7732L7.83643 24.3499C5.58745 25.9246 2.47675 25.376 0.90211 23.1271C0.312251 22.2847 0.000487885 21.3005 0.000487904 20.2807C0.000487909 19.9898 0.0263165 19.6958 0.0773438 19.4068C0.308261 18.0971 1.03545 16.9556 2.12487 16.1928L6.77983 12.9333C8.04866 12.045 9.80353 12.3544 10.6919 13.6232L12.0824 15.609C12.1623 15.723 12.1935 15.8642 12.1693 16.0012C12.1452 16.1383 12.0676 16.2603 11.9535 16.3401L10.2334 17.5445C9.99588 17.7108 9.66858 17.6531 9.50227 17.4156L8.30715 15.7091L3.93141 18.773C3.53117 19.0532 3.26406 19.4725 3.17916 19.9538C3.09495 20.4332 3.20317 20.922 3.48217 21.3205C4.06069 22.1467 5.20352 22.3482 6.02976 21.7697L20.2879 11.7861C20.9943 11.2914 22.1552 10.7507 22.9882 10.5284L29.4119 8.81331C29.5564 8.77468 29.8664 8.4844 29.9144 8.34259L31.5813 3.42087L26.6594 5.08776C26.5177 5.13578 26.2275 5.44572 26.1888 5.59034L25.4056 8.52374C25.3309 8.80386 25.0431 8.97032 24.763 8.89556C24.4828 8.82073 24.3164 8.53277 24.3912 8.25292L25.1744 5.31952C25.303 4.83767 25.8503 4.2532 26.3226 4.09333L32.1348 2.12496L32.6376 1.62218C32.6505 1.46966 32.5975 1.31735 32.4867 1.20654C32.3448 1.06466 32.138 1.01664 31.9472 1.08104L25.986 3.09896C25.1812 3.37139 24.3791 4.22786 24.1599 5.04884L23.0684 9.13691C22.9936 9.41703 22.7059 9.58348 22.4257 9.50873C22.1455 9.4339 21.9792 9.14601 22.0539 8.86609L23.1454 4.77803C23.456 3.61483 24.5089 2.49048 25.6493 2.10445L31.6111 0.0861115C32.1832 -0.107008 32.8031 0.0377442 33.2293 0.463881C33.4691 0.703689 33.6186 1.00852 33.6697 1.33121C33.993 1.38216 34.2982 1.53272 34.5382 1.77288C34.8353 2.06995 34.999 2.46514 34.999 2.88554C34.999 3.05787 34.9711 3.22796 34.9158 3.39134L32.898 9.35263C32.5119 10.4929 31.3875 11.5459 30.2244 11.8565L23.8803 13.5503C23.6651 13.9969 23.4331 14.4043 23.2161 14.7141L13.2324 28.9724C12.9527 29.3718 12.8457 29.8571 12.9304 30.339C13.0154 30.8208 13.2821 31.2403 13.6815 31.52C14.0818 31.8002 14.5671 31.9078 15.0483 31.823C15.5294 31.7381 15.9488 31.471 16.229 31.0708L19.2929 26.695L17.5863 25.5C17.3488 25.3338 17.2911 25.0063 17.4574 24.7689L18.6618 23.0488C18.7417 22.9348 18.8636 22.8571 19.0007 22.8329C19.1378 22.8088 19.279 22.8401 19.3929 22.9199L21.3787 24.3104C22.6474 25.1988 22.957 26.9538 22.0685 28.2225L18.809 32.8775C18.0463 33.9669 16.9049 34.6941 15.5952 34.925C14.2856 35.1558 12.9643 34.8629 11.8749 34.1ZM29.9536 10.842C30.7745 10.6229 31.631 9.82077 31.9034 9.01595L33.9212 3.05507C33.9396 3.00048 33.949 2.94343 33.949 2.88554C33.949 2.74555 33.8946 2.61403 33.7957 2.51519C33.6853 2.40467 33.5335 2.35056 33.3814 2.36309L32.8773 2.8672L30.9089 8.6792C30.7491 9.15161 30.1646 9.69898 29.6827 9.82763L23.259 11.5427C22.5522 11.7314 21.4895 12.2263 20.8901 12.6461L6.63193 22.6298C5.33147 23.5403 3.53271 23.2232 2.62213 21.9227C2.28111 21.4357 2.10087 20.8663 2.10087 20.2763C2.10087 20.1082 2.11577 19.9383 2.14524 19.7714C2.2788 19.014 2.69933 18.3539 3.32923 17.9129L7.98426 14.6534C8.30442 14.4293 8.74743 14.5074 8.9717 14.8276L10.0611 16.3834L10.9211 15.7812L9.83174 14.2254C9.27548 13.4309 8.17647 13.2371 7.38194 13.7933L2.72698 17.0528C1.86729 17.6547 1.29346 18.5555 1.11119 19.589C1.07087 19.8179 1.05036 20.0506 1.05036 20.2807C1.05036 21.0839 1.29654 21.8598 1.76208 22.5248C3.00466 24.2995 5.45942 24.7323 7.23418 23.4897L21.4924 13.5059C21.9993 13.151 22.9322 12.7164 23.5298 12.557L29.9536 10.842ZM15.413 33.8909C16.4466 33.7087 17.3472 33.1348 17.9491 32.2751L21.2086 27.6202C21.765 26.8257 21.5712 25.7268 20.7766 25.1704L19.2208 24.081L18.6186 24.9411L20.1744 26.0304C20.4946 26.2546 20.5727 26.6975 20.3485 27.0179L17.089 31.6729C16.648 32.3029 15.988 32.7233 15.2306 32.8569C14.4732 32.9904 13.7092 32.821 13.0793 32.3799C12.4502 31.9394 12.03 31.2793 11.8964 30.5212C11.7628 29.7634 11.9318 28.9993 12.3723 28.3702L22.2481 14.266C22.1927 14.3002 22.1408 14.3338 22.0946 14.3661L19.7435 16.0124L11.5123 27.7679C10.9114 28.6261 10.6809 29.6686 10.8634 30.7035C11.0458 31.7383 11.619 32.6391 12.4771 33.24C13.3369 33.8419 14.3795 34.0731 15.413 33.8909Z" fill="#852D2E"/>
</svg>
