<svg width="34" height="41" viewBox="0 0 34 41" fill="none" xmlns="http://www.w3.org/2000/svg">
<path d="M31.5663 36.9381V23.8535C32.5941 21.6703 33.1179 19.284 33.0991 16.871C33.0803 14.458 32.5194 12.0801 31.4577 9.9131C30.3961 7.74612 28.8609 5.84551 26.9657 4.3518C25.0706 2.85809 22.8639 1.80949 20.5088 1.28355C18.1538 0.757606 15.7106 0.767775 13.36 1.3133C11.0094 1.85883 8.81154 2.92576 6.92887 4.43519C5.04619 5.94463 3.52689 7.85795 2.48332 10.0337C1.43976 12.2094 0.89861 14.5919 0.899905 17.005C0.899077 19.3676 1.42278 21.701 2.43322 23.8367V36.9381C2.43322 37.1415 2.514 37.3365 2.65777 37.4802C2.80155 37.624 2.99655 37.7048 3.19988 37.7048H8.59257L7.90948 38.8441C7.83979 38.9604 7.80219 39.0931 7.80051 39.2286C7.79883 39.3642 7.83313 39.4978 7.89992 39.6158C7.96671 39.7338 8.06359 39.8319 8.18069 39.9003C8.29779 39.9686 8.43092 40.0047 8.5665 40.0048H25.433C25.5686 40.0047 25.7017 39.9686 25.8188 39.9003C25.9359 39.8319 26.0328 39.7338 26.0996 39.6158C26.1664 39.4978 26.2007 39.3642 26.199 39.2286C26.1973 39.0931 26.1597 38.9604 26.09 38.8441L25.407 37.7048H30.7996C31.003 37.7048 31.198 37.624 31.3418 37.4802C31.4855 37.3365 31.5663 37.1415 31.5663 36.9381ZM2.43322 17.005C2.43147 14.2886 3.18931 11.6258 4.62115 9.31739C6.053 7.00899 8.10179 5.14696 10.5361 3.9416C12.9705 2.73625 15.6933 2.2356 18.3972 2.4962C21.1011 2.7568 23.6782 3.76828 25.8376 5.41638C27.9969 7.06447 29.6523 9.28353 30.6169 11.8229C31.5816 14.3623 31.8169 17.1208 31.2964 19.7868C30.7758 22.4529 29.5202 24.9203 27.6712 26.9104C25.8223 28.9004 23.4537 30.3338 20.8331 31.0487V26.2049H26.9663C27.1697 26.2049 27.3647 26.1241 27.5085 25.9803C27.6522 25.8366 27.733 25.6416 27.733 25.4382V21.6049C27.733 21.4016 27.6522 21.2066 27.5085 21.0628C27.3647 20.919 27.1697 20.8383 26.9663 20.8383H26.1736C26.6928 19.6268 26.9625 18.323 26.9663 17.005C26.9663 14.3617 25.9163 11.8266 24.0472 9.95754C22.1781 8.08845 19.6431 7.0384 16.9998 7.0384C14.3565 7.0384 11.8214 8.08845 9.95233 9.95754C8.08323 11.8266 7.03318 14.3617 7.03318 17.005C7.03431 18.3219 7.29889 19.6252 7.81134 20.8383H7.03318C6.82985 20.8383 6.63485 20.919 6.49107 21.0628C6.3473 21.2066 6.26652 21.4016 6.26652 21.6049V25.4382C6.26652 25.6416 6.3473 25.8366 6.49107 25.9803C6.63485 26.1241 6.82985 26.2049 7.03318 26.2049H13.1665V31.0349C10.088 30.1942 7.37059 28.3662 5.43159 25.8317C3.49259 23.2971 2.43921 20.1962 2.43322 17.005ZM7.79984 24.6716V22.3716H26.1997V24.6716H7.79984ZM19.2997 26.2049V34.6382H14.6998V26.2049H19.2997ZM8.5665 17.005C8.5665 14.7683 9.455 12.6233 11.0365 11.0418C12.6181 9.46022 14.7631 8.57172 16.9998 8.57172C19.2364 8.57172 21.3814 9.46022 22.963 11.0418C24.5445 12.6233 25.433 14.7683 25.433 17.005C25.4321 18.3391 25.1114 19.6536 24.4977 20.8383H9.51409C8.89578 19.6548 8.5708 18.3402 8.5665 17.005ZM3.96654 36.1715V26.4142C6.20327 29.506 9.46251 31.706 13.1665 32.6241V34.6382H10.8665C10.7341 34.6383 10.604 34.6726 10.4889 34.7379C10.3738 34.8032 10.2775 34.8972 10.2095 35.0107L9.51256 36.1715H3.96654ZM9.92119 38.4715L11.3012 36.1715H22.6991L24.0791 38.4715H9.92119ZM30.033 36.1715H24.487L23.7901 35.0107C23.722 34.8972 23.6258 34.8032 23.5106 34.7379C23.3955 34.6726 23.2654 34.6383 23.133 34.6382H20.8331V32.6172C24.5345 31.7052 27.7937 29.5124 30.033 26.4272V36.1715Z" fill="#852D2E"/>
<path d="M3.9668 16.2383H5.50012V17.7716H3.9668V16.2383Z" fill="#852D2E"/>
<path d="M28.5 16.2383H30.0333V17.7716H28.5V16.2383Z" fill="#852D2E"/>
<path d="M13.1665 3.97266H14.6998V5.50598H13.1665V3.97266Z" fill="#852D2E"/>
<path d="M16.2332 3.97266H17.7665V5.50598H16.2332V3.97266Z" fill="#852D2E"/>
<path d="M19.2998 3.97266H20.8331V5.50598H19.2998V3.97266Z" fill="#852D2E"/>
</svg>
